<?xml version="1.0" encoding="utf-8"?>
<!-- Generator: Adobe Illustrator 24.0.2, SVG Export Plug-In . SVG Version: 6.00 Build 0)  -->
<!DOCTYPE svg PUBLIC "-//W3C//DTD SVG 1.1//EN" "http://www.w3.org/Graphics/SVG/1.1/DTD/svg11.dtd" [
	<!ENTITY ns_extend "http://ns.adobe.com/Extensibility/1.0/">
	<!ENTITY ns_ai "http://ns.adobe.com/AdobeIllustrator/10.0/">
	<!ENTITY ns_graphs "http://ns.adobe.com/Graphs/1.0/">
	<!ENTITY ns_vars "http://ns.adobe.com/Variables/1.0/">
	<!ENTITY ns_imrep "http://ns.adobe.com/ImageReplacement/1.0/">
	<!ENTITY ns_sfw "http://ns.adobe.com/SaveForWeb/1.0/">
	<!ENTITY ns_custom "http://ns.adobe.com/GenericCustomNamespace/1.0/">
	<!ENTITY ns_adobe_xpath "http://ns.adobe.com/XPath/1.0/">
]>
<svg version="1.1" id="Capa_1" xmlns:x="&ns_extend;" xmlns:i="&ns_ai;" xmlns:graph="&ns_graphs;"
	 xmlns="http://www.w3.org/2000/svg" xmlns:xlink="http://www.w3.org/1999/xlink" x="0px" y="0px" viewBox="0 0 936.3 398.8"
	 style="enable-background:new 0 0 936.3 398.8;" xml:space="preserve">
<style type="text/css">
	.st0{fill:#1B0035;}
	.st1{fill:#FF9B2E;}
	.st2{fill:#FFFFFF;}
	.st3{fill:#5F5666;}
	.st4{clip-path:url(#SVGID_2_);fill:#FF9B2E;}
	.st5{opacity:0.5;clip-path:url(#SVGID_2_);fill:#FFFFFF;}
	.st6{opacity:0.5;clip-path:url(#SVGID_2_);}
	.st7{clip-path:url(#SVGID_2_);fill:#5F5666;}
	.st8{clip-path:url(#SVGID_2_);fill:#1B0035;}
	.st9{clip-path:url(#SVGID_2_);}
	.st10{clip-path:url(#SVGID_2_);fill:#FFFFFF;}
	.st11{clip-path:url(#SVGID_4_);fill:#5F5666;}
	.st12{clip-path:url(#SVGID_4_);fill:#999999;}
	.st13{clip-path:url(#SVGID_4_);}
	.st14{fill:#FFC1AC;}
	.st15{fill:#000A0F;}
	.st16{fill:none;stroke:#FFFFFF;stroke-width:1.0408;stroke-linecap:round;stroke-miterlimit:10;}
	.st17{opacity:0.3;fill:#000A0F;}
	.st18{fill:#52528E;}
	.st19{fill:#9E4400;}
	.st20{fill:#FDD0AD;}
	.st21{fill:#E0947F;}
	.st22{fill:#F78080;}
	.st23{fill:#BF5050;}
	.st24{fill:#0F1F29;}
	.st25{fill:#999999;}
	.st26{opacity:0.1;fill:#000A0F;}
	.st27{fill:#FDD7C8;}
	.st28{fill:#260151;}
	.st29{fill:#FFD8A2;}
	.st30{fill:#FFFFFF;stroke:#878CF3;stroke-width:1.8772;stroke-miterlimit:10;}
	.st31{fill:none;stroke:#CCD7FC;stroke-width:2.0399;stroke-linecap:round;stroke-linejoin:round;stroke-miterlimit:10;}
	.st32{fill:#CCD7FC;stroke:#CCD7FC;stroke-width:1.5077;stroke-linecap:round;stroke-linejoin:round;stroke-miterlimit:10;}
	.st33{fill:none;stroke:#878CF3;stroke-width:1.8772;stroke-miterlimit:10;}
	.st34{opacity:0.2;fill:#323268;}
	.st35{fill:#FFB75C;}
	.st36{fill:#E3B89A;}
	.st37{fill:none;stroke:#FF9B2E;stroke-width:6.5702;stroke-linecap:round;stroke-linejoin:round;stroke-miterlimit:10;}
	.st38{opacity:0.2;fill:#000A0F;}
</style>
<metadata>
	<sfw  xmlns="&ns_sfw;">
		<slices></slices>
		<sliceSourceBounds  bottomLeftOrigin="true" height="6135.9" width="5955.1" x="-454.1" y="-1131.5"></sliceSourceBounds>
		<optimizationSettings>
			<targetSettings  fileFormat="PNG8Format" targetSettingsID="0">
				
					<PNG8Format  autoReduce="false" ditherAlgorithm="diffusion" ditherPercent="88" interlaced="false" matteColor="#FFFFFF" noMatteColor="false" numColors="128" reductionAlgorithm="selective" rolloverMasterPalette="false" transparency="true" webShiftPercent="0">
					<colorTable  isExact="false"></colorTable>
					<lockedColors></lockedColors>
					<colorShiftEntries></colorShiftEntries>
				</PNG8Format>
			</targetSettings>
		</optimizationSettings>
	</sfw>
</metadata>
<g>
	<defs>
		<rect id="SVGID_3_" x="-4" y="-11" width="940.4" height="417.8"/>
	</defs>
	<clipPath id="SVGID_2_">
		<use xlink:href="#SVGID_3_"  style="overflow:visible;"/>
	</clipPath>
	<path class="st7" d="M1074.2,219.2c0,0-1131.6-12.7-1070.3,85s1084.4,95.6,1084.4,95.6L1074.2,219.2z"/>
	<path style="clip-path:url(#SVGID_2_);fill:#999999;" d="M1012.7,231.7c0,0-975-11-922.2,73.2s934.3,82.4,934.3,82.4L1012.7,231.7z
		"/>
	<g class="st9">
		<g>
			<g>
				<g>
					<g>
						<polygon class="st14" points="703.3,283.7 702.5,312.8 712.4,317.9 714.6,286.9 						"/>
					</g>
					<path class="st1" d="M714.2,309.5l-2.8,2.2l-10.8-1.2l0.7,10.6l32.5-0.1c0,0,0.7-1.5-1.3-3.9
						C729.9,314.1,714.2,309.5,714.2,309.5z"/>
					<path class="st2" d="M725,313.2c3.3,1.3,6.4,2.7,7.4,4c2,2.4,1.3,3.9,1.3,3.9l-12.1,0C722.7,318.4,723.8,315.7,725,313.2z"/>
					<polygon class="st2" points="733.9,318.9 733.8,321 701.3,321.1 701.1,318.6 					"/>
					<polygon class="st15" points="733.9,319.5 733.9,320.1 701.2,319.9 701.2,319.2 					"/>
					<polygon class="st1" points="716.2,311.2 715.2,306.2 710.2,308.8 711.3,314.2 					"/>
					<line class="st16" x1="722.3" y1="312.1" x2="720.5" y2="314.7"/>
					<line class="st16" x1="720.5" y1="311.3" x2="718.7" y2="313.9"/>
					<line class="st16" x1="718.4" y1="310.3" x2="716.5" y2="312.8"/>
				</g>
				<g>
					<g>
						<polygon class="st14" points="739.5,283.7 741.9,312.7 752.3,316.7 751.1,285.7 						"/>
					</g>
					<path class="st1" d="M753.7,309.5l-2.8,2.2l-10.8-1.2l0.7,10.6l32.5-0.1c0,0,0.7-1.5-1.3-3.9
						C769.4,314.1,753.7,309.5,753.7,309.5z"/>
					<path class="st2" d="M764.5,313.2c3.3,1.3,6.4,2.7,7.4,4c2,2.4,1.3,3.9,1.3,3.9l-12.1,0C762.2,318.4,763.3,315.7,764.5,313.2z"
						/>
					<polygon class="st2" points="773.4,318.9 773.3,321 740.8,321.1 740.7,318.6 					"/>
					<polygon class="st15" points="773.4,319.5 773.4,320.1 740.8,319.9 740.7,319.2 					"/>
					<polygon class="st1" points="755.8,311.2 754.7,306.2 749.7,308.8 750.9,314.2 					"/>
					<line class="st16" x1="761.8" y1="312.1" x2="760" y2="314.7"/>
					<line class="st16" x1="760" y1="311.3" x2="758.2" y2="313.9"/>
					<line class="st16" x1="757.9" y1="310.3" x2="756" y2="312.8"/>
				</g>
				<g>
					<path class="st0" d="M705.6,167.6c0,0-8.2,116.9-4.2,139.2c0,0,8.4,3.4,14.9-2c0,0,10.9-93.6,11.7-105.7l5.3-0.7
						c0,0,2.9,100.1,5,104.5c0,0,9.8,4.8,16.3,0.1l-1.3-137.5L705.6,167.6z"/>
					<g>
						<path class="st17" d="M753.3,173.5l-0.1-7.9l-47.6,2c0,0-0.5,7.9-0.8,11.7C730.6,181.5,746.4,174.5,753.3,173.5z"/>
						<path class="st17" d="M733.3,198.5c0,0,2.9,100.1,5,104.5c0,0,9.8,4.8,16.3,0.1l-1-107.2L733.3,198.5z"/>
					</g>
					<path class="st18" d="M737.3,299.4c0,0,10.5,1.2,18.2-1l0.2,5.4c0,0-4.6,4.1-17.7,1.2L737.3,299.4z"/>
					<path class="st18" d="M717.8,301.6l-0.2,6c0,0-9.5,2.5-17.3-0.6l-0.3-5.7C700.1,301.3,711,302.6,717.8,301.6z"/>
				</g>
			</g>
			<g>
				<g>
					<path class="st19" d="M698,76.6c0,0,4.8,7.4,8.4,7.8c3.6,0.3-3.4-10.1-3.4-10.1L698,76.6z"/>
					<polygon class="st20" points="703.9,76.9 708,97.7 720.1,110.2 723.7,94.6 719.9,79 					"/>
					<path class="st20" d="M701.4,46.3c-9,5.5-6.5,11.9-6.5,11.9s0.7,4,3,9.8c-1.3-0.9-3-0.8-4.3,0.3c-2.8,2.5,2.9,11,7.6,8.3
						c1.2,2.7,3.8,6.4,4.4,7c2.4,2.4,11.3,4.2,17.2,3.8c8.5-0.6,10.8-10,9.2-16.4c-2.3-8.9-11.9-27.8-11.9-27.8
						S716.2,37.2,701.4,46.3z"/>
					<path class="st19" d="M698.4,48.9c-2.5,0.9-5.9,6.3-8.4,7.1c0,0,0,0,0,0c0.8,0.9,4.6,11.7,4.6,11.7c2.6-0.8,3.2,1.5,3.2,1.5
						l1.9,4.4l1.7-0.9l-2.5-9.9c1.4-1.5,1.4-3.2,1.4-3.2S698.7,50.7,698.4,48.9z"/>
					<path class="st19" d="M698.3,66.9c0,0,3.1-4.1,2.9-8.9c-0.2-4.8-1-7.2-1-7.2s5.8,3.6,15.4,0.7l-4.2-1.9c0,0,10.7,0.2,15.4-4.5
						l-3.2-0.2c0,0,4.2-2.2,5.6-7.3l-3.7,1c0,0,2.9-2.6-1-6.8c0,0-0.6,3.6-4.1,3.8c0,0,1.9-2.4-1.7-5c0,0,1.9,3.7-2.4,4.2
						c-3.1,0.4-18.2-5.6-22.1,8.2c0,0-8.3,1.2-7.4,11.4c0.6,7.3,6.9,13.9,6.9,13.9s2.4-2.7,4.7,1.3L698.3,66.9z"/>
				</g>
				<g>
					<g>
						<path class="st21" d="M717.4,58.3c1.5,1.9,2.9,3.8,4.2,5.8c1.3,2,2.5,4,3.7,6.1l0.1,0.3l-0.2,0.2c-0.5,0.5-0.9,1-1.4,1.4
							c-0.5,0.5-1,0.9-1.5,1.4c0.3-0.6,0.7-1.1,1.1-1.7c0.4-0.6,0.8-1.1,1.2-1.6l0,0.5c-1.4-1.9-2.6-3.9-3.9-6
							C719.6,62.6,718.5,60.5,717.4,58.3z"/>
					</g>
					<g>
						<path class="st19" d="M705.5,59.7c0-0.9,0.4-1.8,0.9-2.5c0.5-0.7,1.3-1.2,2.2-1.6c0.9-0.3,1.8-0.4,2.7-0.2
							c0.9,0.2,1.7,0.7,2.2,1.5c-0.9,0.3-1.6,0.4-2.3,0.6c-0.6,0.2-1.2,0.4-1.7,0.6c-0.6,0.2-1.1,0.4-1.8,0.7
							C707.1,59.1,706.4,59.4,705.5,59.7z"/>
					</g>
					<g>
						<path class="st19" d="M717.9,55.6c-0.2-0.9,0-1.7,0.4-2.4c0.4-0.7,1.1-1.3,2-1.6c0.9-0.3,1.9-0.3,2.6,0.1
							c0.4,0.1,0.7,0.4,1,0.7c0.3,0.3,0.5,0.7,0.7,1.1c-0.5,0.1-0.8,0.1-1.2,0.2c-0.3,0.1-0.7,0-0.9,0.1c-0.6,0.1-1,0.2-1.4,0.3
							c-0.4,0.1-0.9,0.3-1.4,0.6L717.9,55.6z"/>
					</g>
					<g>
						<path class="st22" d="M726.8,74c0,0-6.9,2.3-12.2,3.4c0,0,5.3,3.9,9.9,1.6C727.4,77.6,726.8,74,726.8,74z"/>
						<path class="st23" d="M719.7,77.4c-1.2,0-2.4,0.4-3.4,1.1c-1.1-0.5-1.7-1-1.7-1c5.3-1.1,12.2-3.4,12.2-3.4s0.6,3.7-2.3,5.1
							c-0.3,0.1-0.6,0.3-0.9,0.4C722.7,78.2,721.3,77.4,719.7,77.4z"/>
					</g>
					<g>
						<path class="st24" d="M714,62.4c0.3,0.7,0.4,1.5,0.2,2.2c-0.1,0.4-0.3,0.8-0.6,1.1c-0.3,0.3-0.7,0.5-1.1,0.7
							c-0.4,0.1-0.8,0.2-1.3,0.1c-0.4-0.1-0.8-0.3-1.1-0.6c-0.6-0.6-0.9-1.3-1-2c0.5,0.6,0.9,1.1,1.5,1.4c0.5,0.3,1.1,0.4,1.7,0.2
							c0.6-0.2,1-0.6,1.3-1.1C713.8,63.8,714,63.1,714,62.4z"/>
					</g>
					<g>
						<path class="st24" d="M725.1,59c0.4,0.6,0.5,1.4,0.4,2.2c-0.1,0.4-0.2,0.8-0.5,1.1c-0.3,0.3-0.7,0.5-1.1,0.6
							c-0.9,0.2-1.8-0.2-2.3-0.8c-0.5-0.6-0.8-1.3-0.9-2c0.5,0.6,0.9,1.1,1.4,1.5c0.5,0.4,1.1,0.6,1.6,0.5c0.6-0.1,0.9-0.5,1.2-1.1
							C725.1,60.4,725.1,59.7,725.1,59z"/>
					</g>
				</g>
			</g>
			<g>
				<g>
					<path class="st20" d="M756.4,64.6c0,0,4.7-3.4,4.1-5.4c-0.5-2-1.5-2-1.5-2s0.9-4.2-1.8-3.4c0,0,0-3.8-3.1-2.1
						c-3.1,1.6-9.6,4-8.8,7.5c0.8,3.5,6.3,9.5,6.3,9.5L756.4,64.6z"/>
					<g>
						<g>
							<path class="st0" d="M749.7,52.8l17.7,15.4c0,0-4.9,4.9-5.2,4.4s-15.2-16-15.2-16L749.7,52.8z"/>
						</g>
					</g>
					<path class="st2" d="M776.1,14.5c2.6,3.1,2.1,7.7-1,10.2c-3.1,2.6-7.7,2.1-10.2-1c-2.6-3.1-2.1-7.7,1-10.2
						C769,11,773.5,11.4,776.1,14.5z"/>
					<path class="st25" d="M753.2,6.8c0,0,1.3,19.9-14.2,33.7l11.5,12.1c0,0,22.6-17.4,34.8-16.4L753.2,6.8z"/>
					<g>
						<path class="st0" d="M783.1,39.7c-1.1,0-2.3-0.6-2.9-1.7C771,21.5,751,10.5,750.8,10.4c-1.6-0.9-2.2-2.8-1.3-4.4
							c0.9-1.6,2.8-2.2,4.4-1.3c0.9,0.5,22,12,32.1,30.2c0.9,1.6,0.3,3.6-1.3,4.4C784.2,39.6,783.6,39.7,783.1,39.7z"/>
					</g>
					<path class="st2" d="M742.1,50.3c3,3.6,6,5.7,2.6,8.6s-8.7,2.4-11.8-1.2c-3-3.6-2.7-8.9,0.7-11.8S739,46.7,742.1,50.3z"/>
					<g>
						<g>
							<polygon class="st0" points="739,38.4 753.3,52.2 745.6,60.2 731.2,45.7 							"/>
						</g>
					</g>
					<path class="st20" d="M754.1,52.3c0,0-14.8,14.6,0.3,4c0,0-5.4,4.2-4,5.3c1.4,1.1,6.5-3.5,6.5-3.5s-5.4,4.8-4.9,5.5
						c0.6,0.7,7.3-3.2,7.3-3.2l-0.9-3L754.1,52.3z"/>
				</g>
				<g>
					<path class="st1" d="M703.5,91.4l20.5-2.6l1.3,6.3l36.4-8.9l-12.9-17.9l10.9-6.3c0,0,25.5,24.1,24.1,31.4
						c-1.3,7.3-34.7,21.5-34.7,21.5s5.6,41.7,7.3,54.6c0,0-23.8,6.9-51.9,4.3c0,0-22.2-61.5-21.8-65.8c0.3-4.3,21.8-10.9,21.8-10.9
						L703.5,91.4z"/>
					<path class="st26" d="M729.4,145.9c-13.3-3.5-27.7-7.9-39.9-15.3c6.4,19.1,15,43,15,43c28.1,2.6,51.9-4.3,51.9-4.3
						c-0.5-4-1.4-10.7-2.4-18C745.8,149.9,737.5,148.1,729.4,145.9z"/>
					<path class="st26" d="M743.3,99.5c0.2,0.4,0.4,0.8,0.6,1.2c3.1,5.7,4.9,13,5.3,14.1c2.4-1.1,8.8-3.9,14-6.5
						C755.7,102.8,748.3,100.5,743.3,99.5z"/>
				</g>
				<g>
					<path class="st27" d="M672.5,153.6c0,0-0.1-9.6,1.3-13.4c1.4-3.8,12.4,8.3,12.4,8.3c12,11.9,13.7,15.3,18.8,19.9
						c0.7-1.4,2.7-4.7,4.7-4.4c0,0,14.2,5.4,1.5,2.3c0,0,10,9.5-1.5,1.1c0,0,8.8,12-1.3,1.7c0,0,9.1,11.3-0.4,2.7
						c0,0,0.8,4.7-3.2,3.9c-1-0.2-2.8-1-4.9-2.2C694,170.7,676.4,161.1,672.5,153.6z"/>
					<path class="st1" d="M683.4,106.2c0,0-12.6,30.1-12.2,46.6c0,0,14.9,15.2,28.8,21.8l5-8.3L688,148.2l7.3-17.9L683.4,106.2z"/>
				</g>
			</g>
		</g>
		<g>
			<g>
				<g>
					<path class="st0" d="M676.5,305.5c0,4.4-3.6,7.9-7.9,7.9H455.1c-4.4,0-7.9-3.6-7.9-7.9v-139c0-4.4,3.6-7.9,7.9-7.9h213.4
						c4.4,0,7.9,3.6,7.9,7.9V305.5z"/>
					<path class="st28" d="M735.6,318.7c0,2.7-3.6,5-8.1,5H396.2c-4.5,0-8.1-2.2-8.1-5v-1.9c0-2.7,3.6-5,8.1-5h331.2
						c4.5,0,8.1,2.2,8.1,5V318.7z"/>
					<path class="st29" d="M667.6,292.4c0,4.3-3.5,7.8-7.8,7.8H463.1c-4.3,0-7.8-3.5-7.8-7.8V173.7c0-4.3,3.5-7.8,7.8-7.8h196.6
						c4.3,0,7.8,3.5,7.8,7.8V292.4z"/>
					<path class="st0" d="M596,315.1h-68.4c-4.7,0-8.5,2.3-8.5,5.2v3.3h85.5v-3.3C604.6,317.4,600.7,315.1,596,315.1z"/>
				</g>
				<g>
					<g>
						<path class="st30" d="M650.4,237.6c0,1.3-1,2.3-2.3,2.3h-85.7c-1.3,0-2.3-1-2.3-2.3v-58c0-1.3,1-2.3,2.3-2.3H648
							c1.3,0,2.3,1,2.3,2.3V237.6z"/>
						<path class="st0" d="M650.4,181.9v-2.3c0-1.3-1-2.3-2.3-2.3h-85.7c-1.3,0-2.3,1-2.3,2.3v2.3H650.4z"/>
					</g>
					<g>
						<g>
							<g>
								<path class="st2" d="M617.9,288.7c0,2.1-1.7,3.7-3.7,3.7H477.6c-2.1,0-3.7-1.7-3.7-3.7v-92.5c0-2.1,1.7-3.7,3.7-3.7h136.6
									c2.1,0,3.7,1.7,3.7,3.7V288.7z"/>
								<g>
									<g>
										<g>
											<path class="st1" d="M517.9,283.1v-25.8c0-1.1-0.9-2-2-2h-15c-1.1,0-2,0.9-2,2v25.8H517.9z"/>
											<path class="st0" d="M545,283.1v-40.2c0-1.1-0.9-2-2-2h-15c-1.1,0-2,0.9-2,2v40.2H545z"/>
											<path class="st1" d="M572.2,283.1V256c0-1.1-0.9-2-2-2h-15c-1.1,0-2,0.9-2,2v27.1H572.2z"/>
											<path class="st0" d="M599.4,283.1v-58.7c0-1.1-0.9-2-2-2h-15c-1.1,0-2,0.9-2,2v58.7H599.4z"/>
										</g>
										<polyline class="st31" points="607.4,282.8 491,282.8 491,208.4 										"/>
										<polyline class="st31" points="499.4,237.3 529.6,219.1 554.8,232.6 592,206.2 										"/>
									</g>
									<polygon class="st32" points="585.5,206.1 593,204.5 590.1,211.3 									"/>
								</g>
							</g>
							<path class="st0" d="M617.9,199.9v-3.7c0-2.1-1.7-3.7-3.7-3.7H477.6c-2.1,0-3.7,1.7-3.7,3.7v3.7H617.9z"/>
						</g>
						<path class="st33" d="M617.9,288.7c0,2.1-1.7,3.7-3.7,3.7H477.6c-2.1,0-3.7-1.7-3.7-3.7v-92.5c0-2.1,1.7-3.7,3.7-3.7h136.6
							c2.1,0,3.7,1.7,3.7,3.7V288.7z"/>
					</g>
				</g>
			</g>
			<g>
				<path class="st34" d="M540.9,158.6c2.8,19.1,9.1,44.7,9.1,44.7c3.4,0.2,6.7-0.1,9.8-0.7c2.5,5.8,5.2,11.7,7.6,15.7
					c-0.3,0.2-0.5,0.4-0.7,0.5c-0.9,0.6-8.5,5.2-9.2,8.2c0,0,0,0,0,0c-0.1,0.4-0.2,0.8-0.2,1.1c0.5,3.3,18.3-5.5,18.3-5.5l-0.1-1
					c0,0,0,0,0,0l-0.1-1.6c0,0-0.1,0-0.1,0l-2.5-14.4c-0.3-2.3-0.6-4.7-1-7c3.2-1.5,5.2-2.7,5.2-2.7c-2.4-10.3-8.6-32.8-8.6-32.8
					s2.9,0.6,7.2,1.2c4,18.7,11.4,42.7,11.4,42.7c3.6,0,7.1-0.6,10.3-1.5c2.6,4.3,5.2,8.4,7.5,11.3c-0.2,0.2-0.5,0.4-0.7,0.6
					c-0.8,0.6-7.5,5.9-8.1,9.1c0,0,0-0.1,0-0.1c-0.1,0.4-0.1,0.8,0,1.1c0.9,3.2,17.5-7.5,17.5-7.5l-0.2-1c0,0,0,0-0.1,0l-0.3-1.5
					c0,0-0.1,0-0.1,0.1l-4.2-14c-0.2-0.8-0.4-1.6-0.6-2.4c3.4-1.8,5.5-3.2,5.5-3.2c-3-10.1-10.5-32.3-10.5-32.3s33.6,4.9,42.9-2.6
					c1.2-1,2-2.3,2.6-3.9c0.1-0.2,0.3-0.5,0.4-0.8H540.9z"/>
			</g>
		</g>
		<g>
			<g>
				<g>
					<g>
						<path class="st20" d="M605.5,171.6c0,0,14.8,44.5,9.3,44.7c-5.5,0.2-25.4-38.9-25.4-38.9L605.5,171.6z"/>
						<path class="st20" d="M613.4,198.2l4.7,15.8c-4,1.9-23.2,11.4-8.1-2.6L613.4,198.2z"/>
						<path class="st0" d="M617.7,212.5l0.5,2.5c0,0-16.5,10.5-17.4,7.4c-0.9-3.1,8.2-10,8.2-10S605.5,218.3,617.7,212.5z"/>
						<g>
							<path class="st24" d="M618.1,214l0.2,1c0,0-16.6,10.6-17.5,7.5c-0.1-0.3-0.1-0.7,0-1.1C601.7,224.2,616.2,215.2,618.1,214z"
								/>
						</g>
					</g>
					<g>
						<path class="st20" d="M572.9,172.7c0,0,9.4,45.9,3.9,45.5c-5.5-0.4-20.6-41.7-20.6-41.7L572.9,172.7z"/>
						<path class="st20" d="M577.5,200l2.8,16.2c-4.2,1.4-24.4,8.5-7.7-3.6L577.5,200z"/>
						<path class="st0" d="M580.1,214.7l0.2,2.5c0,0-17.6,8.5-18.2,5.2c-0.5-3.2,9.3-9,9.3-9S567.2,219.1,580.1,214.7z"/>
						<g>
							<path class="st24" d="M580.3,216.3l0.1,1c0,0-17.8,8.8-18.3,5.5c-0.1-0.3,0-0.7,0.2-1.1C562.8,224.8,578.2,217.3,580.3,216.3
								z"/>
						</g>
					</g>
				</g>
				<g>
					<path class="st35" d="M615.3,120.6l-18,8.1c0,0-44.9,1.4-51.3,4.5c-6.4,3.1,8.8,64.9,8.8,64.9c14.1,0.8,27-7.4,27-7.4
						c-2.4-10.3-8.6-32.8-8.6-32.8s33.3,6.8,43-0.1C625.8,150.8,615.3,120.6,615.3,120.6z"/>
					<path class="st26" d="M615.3,120.6l-18,8.1c0,0-44.9,1.4-51.3,4.5c-6.4,3.1,8.8,64.9,8.8,64.9c14.1,0.8,27-7.4,27-7.4
						c-2.4-10.3-8.6-32.8-8.6-32.8s33.3,6.8,43-0.1C625.8,150.8,615.3,120.6,615.3,120.6z"/>
					<path class="st1" d="M647.8,121l-17.6,9.1c0,0-44.7,4-51,7.5c-6.3,3.5,12.6,64.2,12.6,64.2c14.1,0,26.5-8.9,26.5-8.9
						c-3-10.1-10.5-32.3-10.5-32.3s33.6,4.9,42.9-2.6S647.8,121,647.8,121z"/>
					<path class="st1" d="M597.2,128.7c0,0,7.3-20.2,10.9-24.2l36.8,3.8c0,0,14.7,41,7.6,46.8C645.4,160.9,597.2,128.7,597.2,128.7z
						"/>
				</g>
			</g>
			<g>
				<g>
					<path class="st20" d="M640.4,43.4c0.2,3.7,2.8,6.5,5.8,6.4c3-0.1,5.3-3.2,5.2-6.9c-0.2-3.7-2.8-6.5-5.8-6.4
						C642.5,36.7,640.2,39.8,640.4,43.4z"/>
					<path class="st24" d="M640.3,22.3c0,0-4.9-13.4-17.2-10.2c-12.3,3.2-8.2,8.5-13.4,13.9c-5.4,5.5-12.4,1-13.7,7.6
						c-2.2,11,10.2,10.1,10.2,10.1s-5.2,5.7-2.1,12.3c4.7,10,23.7,7.1,29.8,1.5C640.1,51.8,640.3,22.3,640.3,22.3z"/>
					<path class="st20" d="M624.6,53.5c0,0,1.7,0.1-0.2,11.1c-0.3,1.8-9.4,0-9.9,2.3l12.6,13.2l20.3-7.9l-9.5-4.3
						c0.5-3.3,1.2-8.6,2-14.7C641.1,42.5,624.6,53.5,624.6,53.5z"/>
					<path class="st36" d="M639,59.9c0.3-2.1,0.6-4.3,0.9-6.7c1.3-10.7-15.2,0.3-15.2,0.3s0.9,2.1,0,9.4
						C629.6,62.9,634.5,62.2,639,59.9z"/>
					<path class="st20" d="M616.6,35.9c4.7-20.7,19.7-11.6,29-7.6c-2.3,10.4-2.9,12.2-2,22.6C632.6,62.2,610.4,62.8,616.6,35.9z"/>
					<path class="st24" d="M636.4,13.7c0,0-8.6,6.2-8.1,10.9c0.4,4.6,3.7,9.2,11.2,9.7c0,0-1.4,10.1,0,10c1.4-0.1,3.7-6.2,3.7-6.2
						s6.4-2.2,3.8,5.9c-1.2,3.6-4.3,2.8-4.3,2.8s-6.6,8.2-3.1,14.1c3.5,5.9,15.6,5.3,19.2-2.7c0,0,13.4,2.6,14-10.4
						c0.4-9.6-18.6-9.2-16.1-16.5c2.5-7.3,0.6-11.9-4.9-16.3c-7.6-6-25-5.8-23.3,9.7"/>
				</g>
				<g>
					<g>
						<path class="st24" d="M629,35.8c0.6-0.7,1.4-1.2,2.3-1.6c0.9-0.3,1.9-0.5,2.9-0.3c0.2,0.1,0.5,0.1,0.7,0.2l0.7,0.3
							c0.4,0.3,0.8,0.6,1.1,1c0.3,0.4,0.5,0.8,0.7,1.3c0.2,0.4,0.2,0.9,0.3,1.4c-0.4-0.3-0.6-0.7-0.9-1c-0.3-0.3-0.6-0.6-0.9-0.8
							c-0.6-0.5-1.3-0.8-2-0.9C632.5,35.2,630.8,35.5,629,35.8z"/>
					</g>
					<g>
						<path class="st24" d="M617.4,34c0.4-0.7,0.9-1.2,1.5-1.6c0.6-0.4,1.4-0.7,2.3-0.7c0.9,0,1.7,0.4,2.3,1.1
							c0.6,0.6,0.8,1.4,0.8,2.1c-0.6-0.5-1-1-1.5-1.3c-0.5-0.3-1-0.5-1.5-0.5C620.1,33.1,618.8,33.6,617.4,34z"/>
					</g>
					<g>
						<path class="st21" d="M624.9,39.1c-0.3,0.8-0.8,1.4-1.3,2.1c-0.5,0.6-1.1,1.2-1.7,1.7l0.1-0.4c0.3,1.1,0.6,2.1,0.9,3.2
							c-0.6-1-1.1-1.9-1.5-2.9l-0.1-0.2l0.1-0.2c0.4-0.7,1-1.3,1.5-1.8C623.5,40,624.1,39.5,624.9,39.1z"/>
					</g>
					<g>
						<path class="st24" d="M630.1,41.4c0-0.7,0.3-1.5,0.9-2.1c0.3-0.3,0.7-0.5,1.1-0.7c0.4-0.1,0.9-0.1,1.3-0.1
							c0.4,0.1,0.8,0.2,1.2,0.5c0.3,0.3,0.6,0.7,0.7,1.1c0.2,0.8,0.2,1.6-0.1,2.3c-0.1-0.7-0.3-1.4-0.6-2c-0.3-0.5-0.8-0.9-1.4-1
							c-0.6-0.1-1.2,0-1.7,0.4C631,40.3,630.5,40.8,630.1,41.4z"/>
					</g>
					<g>
						<path class="st24" d="M618.2,38.4c0-0.7,0.2-1.5,0.7-2.1c0.2-0.3,0.6-0.6,1-0.7c0.4-0.2,0.9-0.1,1.3,0
							c0.9,0.2,1.4,1.1,1.6,1.8c0.2,0.8,0.1,1.5-0.1,2.2c-0.1-0.7-0.3-1.4-0.5-2c-0.3-0.6-0.6-1-1.2-1.2c-0.5-0.2-1.1,0-1.5,0.4
							C619,37.2,618.6,37.8,618.2,38.4z"/>
					</g>
					<path class="st22" d="M620,47.7c0,0,5.9,1.5,10.4,2.1c0,0-4.2,3.5-8.2,1.9C619.7,50.8,620,47.7,620,47.7z"/>
					<path class="st23" d="M626.1,50.1c1-0.1,2.1,0.2,2.9,0.7c0.9-0.5,1.4-0.9,1.4-0.9c-4.5-0.6-10.4-2.1-10.4-2.1s-0.3,3,2.2,4
						c0.3,0.1,0.5,0.2,0.8,0.2C623.7,50.9,624.7,50.2,626.1,50.1z"/>
				</g>
			</g>
			<g>
				<g>
					<g>
						<path class="st20" d="M572.7,64.6c0,0-5.8,0.1-6.6-1.7c-0.8-1.9,0-2.5,0-2.5s-3.3-2.8-0.7-3.8c0,0-2.3-3,1.1-3.6
							c3.4-0.6,10.1-2.7,11.6,0.6c1.5,3.2,2.3,10.5,2.3,10.5L572.7,64.6z"/>
						<path class="st0" d="M610,67.2l-20.9,16.1l-6.5-22.6c0,0-8-0.3-11.7,4c0,0,4.4,36.7,14.3,36.6c9.9-0.1,28-16.9,28-16.9
							L610,67.2z"/>
						<path class="st0" d="M610,67.2l-20.9,16.1l-6.5-22.6c0,0-8-0.3-11.7,4c0,0,4.4,36.7,14.3,36.6c9.9-0.1,28-16.9,28-16.9
							L610,67.2z"/>
						<path class="st1" d="M570.8,51.2l-4.6,23c0,0,6.9,0.9,6.8,0.3c0-0.6,2.3-21.9,2.3-21.9L570.8,51.2z"/>
						<path class="st20" d="M567,53.4c0,0,20.6,2.5,2.2,3.3c0,0,6.9,0,6.4,1.8c-0.5,1.7-7.3,1.2-7.3,1.2s7.2,0.5,7.2,1.4
							c0,0.9-7.7,1.9-7.7,1.9l-1.1-2.9L567,53.4z"/>
					</g>
					<g>
						<path class="st2" d="M527,37.3c-0.1,4,3,7.4,7,7.5c4,0.1,7.4-3,7.5-7c0.1-4-3-7.4-7-7.5C530.5,30.1,527.2,33.3,527,37.3z"/>
						<path class="st25" d="M539.9,16.9c0,0,11.1,16.5,31.9,18L570,51.5c0,0-28.6,0-37.5,8.3L539.9,16.9z"/>
						<path class="st37" d="M541,16.9c0,0-9.7,21.8-6.7,41.7"/>
						<path class="st2" d="M575.3,44.5c-0.2,4.7-1.3,8.2,3.2,8.4s8.4-3.4,8.6-8.1c0.2-4.7-3.3-8.7-7.8-8.9
							C574.8,35.7,575.5,39.8,575.3,44.5z"/>
						<polygon class="st1" points="570.5,33.2 567.6,52.9 578.5,54.5 581.1,34.2 						"/>
					</g>
				</g>
				<g>
					<path class="st0" d="M608.2,104.5c0,0,22.3,4.1,36.8,3.8c0,0,10.1-31.6,4.4-36.8c-5.7-5.2-35.5-11.2-40.9-2.6
						c-5.4,8.6-15.3,22.8-1.2,30.5L608.2,104.5z"/>
					<path class="st38" d="M643.3,81.3c-5,3.1-10.1,7-15.5,9.5c-9.4,4.3-19.5,2-27.7-3.4c-0.3,4.5,1.4,8.8,7.2,12l0.9,5.1
						c0,0,22.3,4.1,36.8,3.8c0,0,8-25.1,5.7-34.2C648.8,76.9,646.3,79.5,643.3,81.3z"/>
					<path class="st0" d="M620.4,69.9l0.4-8.4c0,0,12.2-0.6,19.5,2l0.4,8.3L620.4,69.9z"/>
				</g>
				<g>
					<path class="st20" d="M605.3,127.7c1.6-0.2,1.9-0.5-1.6-0.9l-0.8-0.5c0,0-0.3,0.1-0.9,0.3c-0.2,0-0.3,0-0.5,0
						c-10.6-0.9-5.4,0.9-3.6,1.5c-4.4,1.6-10.1,3.7-9.6,4.3c0.7,0.9,6.2-1.5,6.2-1.5s-15.5,7-0.4,1.9c0,0-11.6,5.7,1.2,1.1
						c0,0-15,7.2,15-3.2L605.3,127.7z"/>
					<path class="st0" d="M650.7,72.7c0,0,9,7,1.1,24c-5.9,12.8-9.5,17.8-9.5,17.8s-17.2,15.6-32.8,18.2c0,0-5.9-4.5-7.4-8.3
						l27.9-18.7C630.1,105.7,640.3,63.5,650.7,72.7"/>
				</g>
			</g>
		</g>
	</g>
</g>
</svg>
