<?xml version="1.0" encoding="utf-8"?>
<!-- Generator: Adobe Illustrator 24.0.2, SVG Export Plug-In . SVG Version: 6.00 Build 0)  -->
<!DOCTYPE svg PUBLIC "-//W3C//DTD SVG 1.1//EN" "http://www.w3.org/Graphics/SVG/1.1/DTD/svg11.dtd" [
	<!ENTITY ns_extend "http://ns.adobe.com/Extensibility/1.0/">
	<!ENTITY ns_ai "http://ns.adobe.com/AdobeIllustrator/10.0/">
	<!ENTITY ns_graphs "http://ns.adobe.com/Graphs/1.0/">
	<!ENTITY ns_vars "http://ns.adobe.com/Variables/1.0/">
	<!ENTITY ns_imrep "http://ns.adobe.com/ImageReplacement/1.0/">
	<!ENTITY ns_sfw "http://ns.adobe.com/SaveForWeb/1.0/">
	<!ENTITY ns_custom "http://ns.adobe.com/GenericCustomNamespace/1.0/">
	<!ENTITY ns_adobe_xpath "http://ns.adobe.com/XPath/1.0/">
]>
<svg version="1.1" id="Capa_1" xmlns:x="&ns_extend;" xmlns:i="&ns_ai;" xmlns:graph="&ns_graphs;"
	 xmlns="http://www.w3.org/2000/svg" xmlns:xlink="http://www.w3.org/1999/xlink" x="0px" y="0px" viewBox="0 0 1920.4 134.2"
	 style="enable-background:new 0 0 1920.4 134.2;" xml:space="preserve">
<style type="text/css">
	.st0{fill:#1B0035;}
	.st1{fill:#FF9B2E;}
	.st2{fill:#FFFFFF;}
	.st3{fill:#5F5666;}
	.st4{clip-path:url(#SVGID_4_);fill:#FF9B2E;}
	.st5{opacity:0.5;clip-path:url(#SVGID_4_);fill:#FFFFFF;}
	.st6{opacity:0.5;clip-path:url(#SVGID_4_);}
	.st7{clip-path:url(#SVGID_4_);fill:#5F5666;}
	.st8{clip-path:url(#SVGID_4_);fill:#1B0035;}
	.st9{clip-path:url(#SVGID_4_);}
	.st10{clip-path:url(#SVGID_4_);fill:#FFFFFF;}
	.st11{clip-path:url(#SVGID_5_);fill:#5F5666;}
	.st12{clip-path:url(#SVGID_5_);fill:#999999;}
	.st13{clip-path:url(#SVGID_5_);}
	.st14{fill:#FFC1AC;}
	.st15{fill:#000A0F;}
	.st16{fill:none;stroke:#FFFFFF;stroke-width:1.0408;stroke-linecap:round;stroke-miterlimit:10;}
	.st17{opacity:0.3;fill:#000A0F;}
	.st18{fill:#52528E;}
	.st19{fill:#9E4400;}
	.st20{fill:#FDD0AD;}
	.st21{fill:#E0947F;}
	.st22{fill:#F78080;}
	.st23{fill:#BF5050;}
	.st24{fill:#0F1F29;}
	.st25{fill:#999999;}
	.st26{opacity:0.1;fill:#000A0F;}
	.st27{fill:#FDD7C8;}
	.st28{fill:#260151;}
	.st29{fill:#FFD8A2;}
	.st30{fill:#FFFFFF;stroke:#878CF3;stroke-width:1.8772;stroke-miterlimit:10;}
	.st31{fill:none;stroke:#CCD7FC;stroke-width:2.0399;stroke-linecap:round;stroke-linejoin:round;stroke-miterlimit:10;}
	.st32{fill:#CCD7FC;stroke:#CCD7FC;stroke-width:1.5077;stroke-linecap:round;stroke-linejoin:round;stroke-miterlimit:10;}
	.st33{fill:none;stroke:#878CF3;stroke-width:1.8772;stroke-miterlimit:10;}
	.st34{opacity:0.2;fill:#323268;}
	.st35{fill:#FFB75C;}
	.st36{fill:#E3B89A;}
	.st37{fill:none;stroke:#FF9B2E;stroke-width:6.5702;stroke-linecap:round;stroke-linejoin:round;stroke-miterlimit:10;}
	.st38{opacity:0.2;fill:#000A0F;}
	.st39{clip-path:url(#SVGID_6_);fill:#5F5666;}
	.st40{clip-path:url(#SVGID_6_);fill:#1B0035;}
</style>
<metadata>
	<sfw  xmlns="&ns_sfw;">
		<slices></slices>
		<sliceSourceBounds  bottomLeftOrigin="true" height="6442.2" width="5955.1" x="-454.1" y="-1437.8"></sliceSourceBounds>
		<optimizationSettings>
			<targetSettings  fileFormat="PNG24Format" targetSettingsID="0">
				<PNG24Format  filtered="false" interlaced="false" matteColor="#FFFFFF" noMatteColor="false" transparency="true">
					</PNG24Format>
			</targetSettings>
		</optimizationSettings>
	</sfw>
</metadata>
<g>
	<defs>
		
			<rect id="SVGID_1_" x="0.4" transform="matrix(-1 -1.224647e-16 1.224647e-16 -1 1920.7227 133.6957)" width="1920" height="133.7"/>
	</defs>
	<clipPath id="SVGID_4_">
		<use xlink:href="#SVGID_1_"  style="overflow:visible;"/>
	</clipPath>
	<path class="st7" d="M0.3-101.8H65c64.6,0,193.8,0,323.1,0s258.5,0,387.7,0s258.5,0,387.7,0s258.5,0,387.7,0s258.5,0,323.1,0h64.6
		V83.5l-64.6-5.1c-64.6-5.5-193.8-15.2-323.1-20.7c-129.2-5.1-258.5-5.1-387.7,0c-129.2,5.5-258.5,15.2-387.7,30.9
		C646.5,103.8,517.2,125,388,129.8S129.6,125,65,119.5l-64.6-5.1L0.3-101.8z"/>
	<path class="st8" d="M0.3-116.5H65c64.6,0,193.8,0,323.1,0s258.5,0,387.7,0s258.5,0,387.7,0s258.5,0,387.7,0s258.5,0,323.1,0h64.6
		V68.8l-64.6-5.1c-64.6-5.5-193.8-15.2-323.1-20.7c-129.2-5.1-258.5-5.1-387.7,0C1034.1,48.6,904.9,58.2,775.7,74
		C646.5,89.1,517.2,110.4,388,115.2S129.6,110.4,65,104.8L0.3,99.7L0.3-116.5z"/>
</g>
</svg>
