<?xml version="1.0" encoding="utf-8"?>
<!-- Generator: Adobe Illustrator 24.0.2, SVG Export Plug-In . SVG Version: 6.00 Build 0)  -->
<!DOCTYPE svg PUBLIC "-//W3C//DTD SVG 1.1//EN" "http://www.w3.org/Graphics/SVG/1.1/DTD/svg11.dtd" [
	<!ENTITY ns_extend "http://ns.adobe.com/Extensibility/1.0/">
	<!ENTITY ns_ai "http://ns.adobe.com/AdobeIllustrator/10.0/">
	<!ENTITY ns_graphs "http://ns.adobe.com/Graphs/1.0/">
	<!ENTITY ns_vars "http://ns.adobe.com/Variables/1.0/">
	<!ENTITY ns_imrep "http://ns.adobe.com/ImageReplacement/1.0/">
	<!ENTITY ns_sfw "http://ns.adobe.com/SaveForWeb/1.0/">
	<!ENTITY ns_custom "http://ns.adobe.com/GenericCustomNamespace/1.0/">
	<!ENTITY ns_adobe_xpath "http://ns.adobe.com/XPath/1.0/">
]>
<svg version="1.1" id="Capa_1" xmlns:x="&ns_extend;" xmlns:i="&ns_ai;" xmlns:graph="&ns_graphs;"
	 xmlns="http://www.w3.org/2000/svg" xmlns:xlink="http://www.w3.org/1999/xlink" x="0px" y="0px" viewBox="0 0 1920.4 134.2"
	 style="enable-background:new 0 0 1920.4 134.2;" xml:space="preserve">
<style type="text/css">
	.st0{clip-path:url(#SVGID_2_);fill:#FF9B2E;}
	.st1{clip-path:url(#SVGID_4_);fill:#1B0035;}
</style>
<metadata>
	<sfw  xmlns="&ns_sfw;">
		<slices></slices>
		<sliceSourceBounds  bottomLeftOrigin="true" height="257.3" width="1993.7" x="-45.9" y="-123.1"></sliceSourceBounds>
		<optimizationSettings>
			<targetSettings  fileFormat="PNG24Format" targetSettingsID="0">
				<PNG24Format  filtered="false" interlaced="false" matteColor="#FFFFFF" noMatteColor="false" transparency="true">
					</PNG24Format>
			</targetSettings>
		</optimizationSettings>
	</sfw>
</metadata>
<g>
	<g>
		<defs>
			<rect id="SVGID_1_" x="-26.9" y="0" width="1974.7" height="137.5"/>
		</defs>
		<clipPath id="SVGID_2_">
			<use xlink:href="#SVGID_1_"  style="overflow:visible;"/>
		</clipPath>
		<path class="st0" d="M1947.7,242.2h-66.4c-66.4,0-199.3,0-332.3,0s-265.9,0-398.7,0s-265.9,0-398.7,0s-265.9,0-398.7,0
			s-265.9,0-332.3,0h-66.3V51.6l66.4,5.2C87,62.5,219.9,72.5,352.9,78.2c132.9,5.2,265.9,5.2,398.7,0
			c132.9-5.7,265.9-15.6,398.7-31.8C1283.2,30.8,1416.2,8.9,1549.1,4s265.9,4.9,332.3,10.6l66.4,5.2v222.4H1947.7z"/>
	</g>
	<g>
		<defs>
			<rect id="SVGID_3_" x="-26.9" y="0" width="1974.7" height="137.5"/>
		</defs>
		<clipPath id="SVGID_4_">
			<use xlink:href="#SVGID_3_"  style="overflow:visible;"/>
		</clipPath>
		<path class="st1" d="M1947.7,257.3h-66.4c-66.4,0-199.3,0-332.3,0s-265.9,0-398.7,0s-265.9,0-398.7,0s-265.9,0-398.7,0
			s-265.9,0-332.3,0h-66.3V66.7L20.6,72C87,77.6,219.9,87.6,352.9,93.3c132.9,5.2,265.9,5.2,398.7,0
			c132.9-5.7,265.9-15.6,398.7-31.8c132.9-15.6,265.9-37.4,398.7-42.4s265.9,4.9,332.3,10.6l66.4,5.2v222.4H1947.7z"/>
	</g>
</g>
</svg>
