<?xml version="1.0" encoding="utf-8"?>
<!-- Generator: Adobe Illustrator 24.0.2, SVG Export Plug-In . SVG Version: 6.00 Build 0)  -->
<!DOCTYPE svg PUBLIC "-//W3C//DTD SVG 1.1//EN" "http://www.w3.org/Graphics/SVG/1.1/DTD/svg11.dtd" [
	<!ENTITY ns_extend "http://ns.adobe.com/Extensibility/1.0/">
	<!ENTITY ns_ai "http://ns.adobe.com/AdobeIllustrator/10.0/">
	<!ENTITY ns_graphs "http://ns.adobe.com/Graphs/1.0/">
	<!ENTITY ns_vars "http://ns.adobe.com/Variables/1.0/">
	<!ENTITY ns_imrep "http://ns.adobe.com/ImageReplacement/1.0/">
	<!ENTITY ns_sfw "http://ns.adobe.com/SaveForWeb/1.0/">
	<!ENTITY ns_custom "http://ns.adobe.com/GenericCustomNamespace/1.0/">
	<!ENTITY ns_adobe_xpath "http://ns.adobe.com/XPath/1.0/">
]>
<svg version="1.1" id="Capa_1" xmlns:x="&ns_extend;" xmlns:i="&ns_ai;" xmlns:graph="&ns_graphs;"
	 xmlns="http://www.w3.org/2000/svg" xmlns:xlink="http://www.w3.org/1999/xlink" x="0px" y="0px" viewBox="0 0 101.1 70"
	 style="enable-background:new 0 0 101.1 70;" xml:space="preserve">
<style type="text/css">
	.st0{fill:#1B0035;}
	.st1{fill:#FF9B2E;}
	.st2{fill:#FFFFFF;}
	.st3{fill:#5F5666;}
	.st4{clip-path:url(#SVGID_2_);fill:#FF9B2E;}
	.st5{opacity:0.5;clip-path:url(#SVGID_2_);fill:#FFFFFF;}
	.st6{opacity:0.5;clip-path:url(#SVGID_2_);}
	.st7{clip-path:url(#SVGID_2_);fill:#5F5666;}
	.st8{clip-path:url(#SVGID_2_);fill:#1B0035;}
	.st9{clip-path:url(#SVGID_2_);}
	.st10{clip-path:url(#SVGID_2_);fill:#FFFFFF;}
</style>
<metadata>
	<sfw  xmlns="&ns_sfw;">
		<slices></slices>
		<sliceSourceBounds  bottomLeftOrigin="true" height="6135.9" width="5955.1" x="-454.1" y="-1131.5"></sliceSourceBounds>
		<optimizationSettings>
			<targetSettings  fileFormat="PNG8Format" targetSettingsID="0">
				
					<PNG8Format  autoReduce="false" ditherAlgorithm="diffusion" ditherPercent="88" interlaced="false" matteColor="#FFFFFF" noMatteColor="false" numColors="128" reductionAlgorithm="selective" rolloverMasterPalette="false" transparency="true" webShiftPercent="0">
					<colorTable  isExact="false"></colorTable>
					<lockedColors></lockedColors>
					<colorShiftEntries></colorShiftEntries>
				</PNG8Format>
			</targetSettings>
		</optimizationSettings>
	</sfw>
</metadata>
<g>
	<path class="st1" d="M69.3,28.1l0-0.1l-0.8,0.3l0,0l-1.1,0.5l0,0c-0.3,0.1-0.7,0.3-1,0.4c-0.8,0.3-1.6,0.6-2.4,0.9l0,0l-1.1,0.4
		l0,0l-1,0.4l0,0c-0.4,0.1-0.7,0.2-1.1,0.4l0,0l-0.1,0c0.2,0.2,0.4,0.3,0.6,0.5c1.5,1.6,1.5,4.1-0.1,5.6c-1.6,1.5-4.1,1.5-5.6-0.1
		c-1.2-1.3-1.4-3.2-0.6-4.7c-1.6,0.2-2.9,0.1-3.9-0.3c-0.4-0.2-0.8-0.4-1.1-0.7c-0.1,0.5-0.2,1-0.4,1.5c-0.6,1.8-1.9,3.2-3.6,3.9
		c-6.3,2.5-13.7,2.3-17.8,0.9l-0.1-0.1c-0.6-0.2-1-0.7-1.2-1.2c-0.2-0.6-0.2-1.3,0.1-1.9c1.9-3.6,6.5-8.8,13.6-11.6
		c1.5-0.6,3.3-0.6,4.9,0.1c0.6,0.3,1.2,0.6,1.7,1c0-0.4,0.1-0.9,0.3-1.3c-0.8-0.3-1.5-0.8-2.1-1.5c-2.5-2.6-2.4-6.8,0.2-9.3
		s6.8-2.4,9.3,0.2c1.1,1.1,1.7,2.6,1.8,4l0.6-0.3l0,0l1.1-0.5l0,0c0.8-0.3,1.5-0.6,2.3-1c0.3-0.1,0.7-0.3,1-0.4l0,0l1.1-0.4l0.1,0
		l0,0C58.6,8.2,52.7,3.9,45.6,1.7C27.2-4.2,7.5,6,1.7,24.4c-5.9,18.4,4.3,38.1,22.7,44c5.3,1.7,10.7,2,15.8,1.2l0,0l0.1,0
		c2.8-0.4,5.6-1.2,8.2-2.3c0.3-0.1,0.5-0.2,0.8-0.3c0.7-0.4,1.5-0.7,1.9-1.4l0.1-0.1c5.3-8.1-5.8-11.4-3.2-18
		c2.1-5.4,9.3-3.5,13.8-4c1.2-0.3,2.5-0.7,3.2-1.5c0.3-0.3,0.6-0.5,0.9-0.8c1.6-1.8,2.1-3.3,2.7-5.4C69.6,33.3,69.7,30.6,69.3,28.1z
		 M25.4,8.1c2.2-2.1,5.8-2.1,7.9,0.2c2.1,2.2,2.1,5.8-0.2,7.9c-2.2,2.1-5.8,2-7.9-0.2C23.1,13.7,23.1,10.2,25.4,8.1z M9.3,28.3
		c-2.5-2.6-2.4-6.8,0.2-9.3c2.6-2.5,6.8-2.4,9.3,0.2c2.5,2.6,2.4,6.8-0.2,9.3C15.9,31,11.8,30.9,9.3,28.3z M26.3,52.5
		c-3.4,3.3-8.9,3.1-12.1-0.3c-3.3-3.4-3.1-8.9,0.3-12.1c3.4-3.3,8.9-3.1,12.1,0.3C29.8,43.8,29.7,49.2,26.3,52.5z M44.5,62
		c-2.1,2-5.4,1.9-7.3-0.2c-2-2.1-1.9-5.4,0.2-7.3c2.1-2,5.4-1.9,7.3,0.2C46.7,56.8,46.6,60.1,44.5,62z"/>
	<path class="st2" d="M25.2,16c2.1,2.2,5.7,2.3,7.9,0.2c2.2-2.1,2.3-5.7,0.2-7.9c-2.1-2.2-5.7-2.3-7.9-0.2
		C23.1,10.2,23.1,13.7,25.2,16z"/>
	<path class="st2" d="M18.8,19.2c-2.5-2.6-6.7-2.7-9.3-0.2c-2.6,2.5-2.7,6.7-0.2,9.3c2.5,2.6,6.7,2.7,9.3,0.2
		C21.2,26,21.3,21.8,18.8,19.2z"/>
	<path class="st0" d="M54.6,12.3c-2.5-2.6-6.7-2.7-9.3-0.2s-2.7,6.7-0.2,9.3c0.6,0.7,1.4,1.2,2.1,1.5c0.6-1.5,2.3-3,5.6-4.8l0,0
		l1-0.5l0,0L55,17l0,0c0.3-0.2,0.7-0.3,1-0.5l0,0l0.4-0.2C56.3,14.9,55.7,13.4,54.6,12.3z"/>
	<path class="st0" d="M37.4,54.5c-2.1,2-2.2,5.3-0.2,7.3c2,2.1,5.3,2.2,7.3,0.2c2.1-2,2.2-5.3,0.2-7.3
		C42.7,52.6,39.4,52.5,37.4,54.5z"/>
	<path class="st0" d="M55.5,37.3c1.5,1.6,4,1.7,5.6,0.1c1.6-1.5,1.7-4,0.1-5.6c-0.2-0.2-0.4-0.4-0.6-0.5l-1.1,0.3l0,0l-1,0.3l0,0
		c-1.3,0.4-2.5,0.6-3.5,0.7C54.1,34.1,54.2,36,55.5,37.3z"/>
	<path class="st2" d="M26.6,40.4c-3.3-3.4-8.7-3.6-12.1-0.3c-3.4,3.3-3.6,8.7-0.3,12.1c3.3,3.4,8.7,3.6,12.1,0.3
		C29.7,49.2,29.8,43.8,26.6,40.4z"/>
	<path class="st1" d="M68.5,27c0.2-0.1,0.3-0.1,0.5-0.2l0,0c15-6.3,33.3-16.7,32-19.9c-0.1-0.3-0.3-0.5-0.7-0.6
		c-3.9-1.7-22.2,3-36.2,8.2c-0.2,0.1-0.4,0.1-0.5,0.2l-0.1,0c-0.1,0.1-0.3,0.1-0.4,0.2L68,27.2C68.1,27.1,68.3,27.1,68.5,27z"/>
	<path class="st1" d="M54.4,18.6c-0.2,0.1-0.3,0.2-0.5,0.3c-0.2,0.1-0.4,0.2-0.5,0.3c-3,1.6-4.4,2.9-5,4.1C48,24,48,24.7,48.2,25.5
		c0.2,0.7,0.5,1.4,0.8,2.1c0.3,0.7,0.5,1.4,0.9,2.1c0.4,0.7,0.8,1.2,1.6,1.5c1,0.4,2.4,0.5,4.7,0c0.6-0.1,1.2-0.2,1.8-0.4
		c0.2,0,0.4-0.1,0.6-0.2l0.1,0c0.1,0,0.3-0.1,0.4-0.1l-3.9-9.8L54.4,18.6z"/>
	<path class="st2" d="M60.9,15.7c-0.8,0.3-1.6,0.7-2.3,1c-0.2,0.1-0.4,0.2-0.5,0.2c-0.2,0.1-0.4,0.2-0.5,0.2l4.9,12.3
		c0.2-0.1,0.4-0.1,0.5-0.2c0.2-0.1,0.4-0.1,0.6-0.2c0.7-0.3,1.5-0.6,2.4-0.9c0.3-0.1,0.7-0.3,1-0.4c0.2-0.1,0.4-0.1,0.5-0.2
		c0.2-0.1,0.4-0.1,0.5-0.2L63,14.9c-0.2,0.1-0.4,0.1-0.5,0.2c-0.2,0.1-0.4,0.1-0.5,0.2C61.6,15.4,61.3,15.6,60.9,15.7z"/>
	<path class="st0" d="M57,17.3c-0.2,0.1-0.4,0.2-0.5,0.2l0,0c-0.3,0.2-0.7,0.3-1,0.5c-0.2,0.1-0.4,0.2-0.5,0.3
		c-0.2,0.1-0.4,0.2-0.5,0.3l0.8,2.1l3.9,9.8c0.2-0.1,0.4-0.1,0.6-0.2c0.2-0.1,0.4-0.1,0.6-0.2c0.3-0.1,0.7-0.2,1.1-0.4
		c0.2-0.1,0.4-0.1,0.5-0.2c0.2-0.1,0.4-0.1,0.6-0.2l-4.9-12.3C57.3,17.2,57.2,17.3,57,17.3z"/>
	<path class="st2" d="M48.3,27.9c-0.3-0.7-0.6-1.3-1.1-1.8c-0.7-0.8-1.5-1.5-2.4-1.9c-1.3-0.5-2.7-0.6-4-0.1c-0.7,0.3-1.4,0.6-2,0.9
		l-0.3,0.1c-0.6,0.3-1.2,0.6-1.8,1l-0.3,0.2c-0.5,0.3-1.1,0.7-1.6,1.1l-0.3,0.2c-0.5,0.4-1,0.7-1.4,1.1l-0.1,0
		c-0.1,0.1-0.2,0.2-0.3,0.3c-0.2,0.2-0.3,0.3-0.5,0.5c-0.1,0.1-0.2,0.2-0.4,0.4c-0.2,0.1-0.3,0.3-0.5,0.5c-0.1,0.1-0.2,0.2-0.3,0.4
		c-0.1,0.1-0.3,0.3-0.4,0.4c-0.1,0.1-0.2,0.2-0.3,0.4c-0.1,0.1-0.3,0.3-0.4,0.4c-0.1,0.1-0.2,0.2-0.3,0.3c-0.1,0.2-0.2,0.3-0.3,0.5
		c-0.1,0.1-0.2,0.2-0.2,0.3l0,0c1.6-2.1,3.9-4.4,4.9-4.7c1-1,2,1.1,0.2,2.8c-1.8,1.6-1.7,1.8-1.5,2.3c0.1,0.5,3.4-2,3.9-0.4
		c0.4,1.6-4.3,1.1-4.3,2.6c0.1,1.5,4.6,0,5.2,1.3c0.2,0.5,0.3,0.7,0.3,0.8c2.5-0.2,5.1-0.8,7.5-1.7c2.2-0.9,3.5-3.3,3.3-5.8
		C48.7,29.3,48.6,28.6,48.3,27.9z"/>
	<path class="st0" d="M37.6,36.7c-0.6-1.3-5.2,0.2-5.3-1.3c-0.1-1.5,4.7-1,4.3-2.7c-0.4-1.6-3.8,1-3.9,0.4c-0.1-0.5-0.3-0.7,1.6-2.3
		c1.8-1.7,0.8-3.9-0.2-2.8c-1,0.3-3.3,2.7-5,4.8l0,0c-1,1.4-1.8,2.7-1.8,3.3c1.5,2.5,10.3,1.4,10.3,1.4s0.2,0.2,0.3,0
		C37.9,37.4,37.9,37.1,37.6,36.7z"/>
</g>
</svg>
