<?xml version="1.0" encoding="utf-8"?>
<!-- Generator: Adobe Illustrator 24.0.2, SVG Export Plug-In . SVG Version: 6.00 Build 0)  -->
<!DOCTYPE svg PUBLIC "-//W3C//DTD SVG 1.1//EN" "http://www.w3.org/Graphics/SVG/1.1/DTD/svg11.dtd" [
	<!ENTITY ns_extend "http://ns.adobe.com/Extensibility/1.0/">
	<!ENTITY ns_ai "http://ns.adobe.com/AdobeIllustrator/10.0/">
	<!ENTITY ns_graphs "http://ns.adobe.com/Graphs/1.0/">
	<!ENTITY ns_vars "http://ns.adobe.com/Variables/1.0/">
	<!ENTITY ns_imrep "http://ns.adobe.com/ImageReplacement/1.0/">
	<!ENTITY ns_sfw "http://ns.adobe.com/SaveForWeb/1.0/">
	<!ENTITY ns_custom "http://ns.adobe.com/GenericCustomNamespace/1.0/">
	<!ENTITY ns_adobe_xpath "http://ns.adobe.com/XPath/1.0/">
]>
<svg version="1.1" id="Capa_1" xmlns:x="&ns_extend;" xmlns:i="&ns_ai;" xmlns:graph="&ns_graphs;"
	 xmlns="http://www.w3.org/2000/svg" xmlns:xlink="http://www.w3.org/1999/xlink" x="0px" y="0px" viewBox="0 0 97.7 70"
	 style="enable-background:new 0 0 97.7 70;" xml:space="preserve">
<style type="text/css">
	.st0{fill:#1B0035;}
	.st1{fill:#FF9B2E;}
	.st2{fill:#FFFFFF;}
	.st3{fill:#5F5666;}
	.st4{clip-path:url(#SVGID_2_);fill:#FF9B2E;}
	.st5{opacity:0.5;clip-path:url(#SVGID_2_);fill:#FFFFFF;}
	.st6{opacity:0.5;clip-path:url(#SVGID_2_);}
	.st7{clip-path:url(#SVGID_2_);fill:#5F5666;}
	.st8{clip-path:url(#SVGID_2_);fill:#1B0035;}
	.st9{clip-path:url(#SVGID_2_);}
	.st10{clip-path:url(#SVGID_2_);fill:#FFFFFF;}
</style>
<metadata>
	<sfw  xmlns="&ns_sfw;">
		<slices></slices>
		<sliceSourceBounds  bottomLeftOrigin="true" height="6135.9" width="5955.1" x="-454.1" y="-1131.5"></sliceSourceBounds>
		<optimizationSettings>
			<targetSettings  fileFormat="PNG8Format" targetSettingsID="0">
				
					<PNG8Format  autoReduce="false" ditherAlgorithm="diffusion" ditherPercent="88" interlaced="false" matteColor="#FFFFFF" noMatteColor="false" numColors="128" reductionAlgorithm="selective" rolloverMasterPalette="false" transparency="true" webShiftPercent="0">
					<colorTable  isExact="false"></colorTable>
					<lockedColors></lockedColors>
					<colorShiftEntries></colorShiftEntries>
				</PNG8Format>
			</targetSettings>
		</optimizationSettings>
	</sfw>
</metadata>
<g>
	<g>
		<path class="st1" d="M5.2,0C3.8,0,2.5,0.6,1.5,1.5C0.6,2.5,0,3.8,0,5.2v59.6c0,1.4,0.6,2.7,1.5,3.7c1,1,2.3,1.5,3.7,1.5h59.6
			c1.4,0,2.7-0.6,3.7-1.5c1-1,1.5-2.3,1.5-3.7V5.2c0-1.4-0.6-2.7-1.5-3.7c-1-1-2.3-1.5-3.7-1.5H5.2z M18.9,7c1.9,0,3.5,1.6,3.5,3.5
			c0,1.9-1.6,3.5-3.5,3.5c-1.9,0-3.5-1.6-3.5-3.5C15.4,8.6,17,7,18.9,7z M8.2,7c1.9,0,3.5,1.6,3.5,3.5c0,1.9-1.6,3.5-3.5,3.5
			c-1.9,0-3.5-1.6-3.5-3.5C4.7,8.6,6.2,7,8.2,7z M65.4,62.9H4.7V19.1h60.7V62.9z"/>
		<path class="st2" d="M4.7,62.9h60.7V19.1H4.7V62.9z M63.6,43.8c0.4,0.5,0.7,1.1,0.7,1.8c0,0.7-0.2,1.3-0.7,1.7
			c-0.4,0.5-1.1,0.7-1.8,0.7c-0.7,0-1.3-0.3-1.7-0.7c-0.4-0.5-0.7-1.1-0.7-1.7c0-0.7,0.2-1.3,0.7-1.8c0.4-0.5,1.1-0.7,1.8-0.7
			C62.5,43.1,63.2,43.4,63.6,43.8z M48,33.9l1.1,5.8l0,0c0,0.1,0,0.1,0,0.2c0-0.1,0-0.2,0-0.2l1.2-5.7h4.3l1.1,5.6l1.1-5.6h4.5
			l-3.6,14h-4.3l-1.1-5.6L51,47.9h-3.7h-0.6l-3.3-14H48z M29.1,33.9l1.1,5.8l0,0c0,0.1,0,0.1,0,0.2c0-0.1,0-0.2,0-0.2l1.2-5.7h4.3
			l1.1,5.6l1.1-5.6h4.5l-3.6,14h-4.3l-1.1-5.6l-1.2,5.6h-3.7h-0.6l-3.3-14H29.1z M10.2,33.9l1.1,5.8l0,0c0,0.1,0,0.1,0,0.2
			c0-0.1,0-0.2,0-0.2l1.2-5.7h4.3l1.1,5.6l1.1-5.6h4.5l-3.6,14h-4.3l-1.1-5.6l-1.2,5.6H9.5H8.9l-3.3-14H10.2z"/>
		<path class="st2" d="M15.4,10.5c0,1.9,1.6,3.5,3.5,3.5c1.9,0,3.5-1.6,3.5-3.5c0-1.9-1.6-3.5-3.5-3.5C17,7,15.4,8.6,15.4,10.5z"/>
		<path class="st2" d="M4.7,10.5c0,1.9,1.6,3.5,3.5,3.5c1.9,0,3.5-1.6,3.5-3.5c0-1.9-1.6-3.5-3.5-3.5C6.2,7,4.7,8.6,4.7,10.5z"/>
		<path class="st0" d="M10.2,33.9H5.5l3.3,14h0.6h3.7l1.2-5.6l1.1,5.6h4.3l3.6-14h-4.5l-1.1,5.6l-1.1-5.6h-4.3l-1.2,5.7
			c0,0.1,0,0.2,0,0.2c0-0.1,0-0.1,0-0.2l0,0L10.2,33.9z"/>
		<path class="st0" d="M29.1,33.9h-4.6l3.3,14h0.6h3.7l1.2-5.6l1.1,5.6h4.3l3.6-14h-4.5l-1.1,5.6l-1.1-5.6h-4.3l-1.2,5.7
			c0,0.1,0,0.2,0,0.2c0-0.1,0-0.1,0-0.2l0,0L29.1,33.9z"/>
		<path class="st0" d="M48,33.9h-4.6l3.3,14h0.6H51l1.2-5.6l1.1,5.6h4.3l3.6-14h-4.5l-1.1,5.6l-1.1-5.6h-4.3l-1.2,5.7
			c0,0.1,0,0.2,0,0.2c0-0.1,0-0.1,0-0.2l0,0L48,33.9z"/>
		<path class="st0" d="M60.1,43.8c-0.4,0.5-0.7,1.1-0.7,1.8c0,0.7,0.2,1.3,0.7,1.7c0.4,0.5,1.1,0.7,1.7,0.7c0.7,0,1.3-0.3,1.8-0.7
			c0.4-0.5,0.7-1.1,0.7-1.7c0-0.7-0.2-1.3-0.7-1.8c-0.4-0.5-1.1-0.7-1.7-0.7C61.2,43.1,60.5,43.4,60.1,43.8z"/>
	</g>
	<g>
		<circle class="st2" cx="80.4" cy="22" r="14.8"/>
		<g>
			<path class="st1" d="M63.1,22c0,9.6,7.8,17.3,17.3,17.3c9.6,0,17.3-7.8,17.3-17.3c0-9.6-7.8-17.3-17.3-17.3
				C70.8,4.6,63.1,12.4,63.1,22z M93.9,22c0,7.4-6,13.3-13.3,13.3c-7.4,0-13.3-6-13.3-13.3c0-7.4,6-13.3,13.3-13.3
				C87.9,8.6,93.9,14.6,93.9,22z"/>
			<path class="st0" d="M80,32.2h1.5c0.5,0,0.8-0.4,0.8-0.8V30c1.2-0.2,2.3-0.6,3.2-1.2c1.4-0.9,2.2-2.2,2.2-3.9
				c0-1-0.3-1.9-0.9-2.6c-1-1.1-2.5-1.9-4.5-2.2v-2.9c0.4,0.2,0.7,0.4,1,0.7c0.2,0.2,0.4,0.3,0.7,0.3c0.2,0,0.5-0.2,0.5-0.2l0,0
				l1.7-1.1c0.2-0.1,0.4-0.3,0.4-0.6c0-0.2-0.1-0.3-0.2-0.5c-1.1-1.2-2.4-2-4.1-2.3V12c0-0.5-0.4-0.8-0.8-0.8H80
				c-0.5,0-0.8,0.4-0.8,0.8v1.6c-0.8,0.1-1.5,0.3-2.1,0.6c-2.1,0.9-3.1,2.3-3,4.2c0,0.9,0.3,1.7,0.8,2.4c0.9,1.2,2.3,1.9,4.3,2.3
				v3.6c-0.9-0.3-1.7-0.9-2.5-1.7c-0.2-0.2-0.4-0.3-0.7-0.3c-0.2,0-0.5,0.1-0.5,0.1l0,0L74,25.7c-0.3,0.2-0.4,0.4-0.4,0.6
				c0,0.2,0.1,0.3,0.2,0.4c0.4,0.6,0.9,1.1,1.6,1.6c1.1,0.8,2.3,1.4,3.7,1.6v1.4C79.2,31.8,79.6,32.2,80,32.2z M82.4,23.5
				c0.8,0.3,1.2,0.7,1.2,1.4c0,0.7-0.3,1.2-0.9,1.5c-0.1,0.1-0.2,0.1-0.3,0.2V23.5z M78.2,18.4c0-0.5,0.3-0.9,0.9-1.2l0.1,0v2.5
				C78.5,19.5,78.2,19,78.2,18.4z"/>
		</g>
	</g>
</g>
</svg>
