<?xml version="1.0" encoding="utf-8"?>
<!-- Generator: Adobe Illustrator 24.0.2, SVG Export Plug-In . SVG Version: 6.00 Build 0)  -->
<!DOCTYPE svg PUBLIC "-//W3C//DTD SVG 1.1//EN" "http://www.w3.org/Graphics/SVG/1.1/DTD/svg11.dtd" [
	<!ENTITY ns_extend "http://ns.adobe.com/Extensibility/1.0/">
	<!ENTITY ns_ai "http://ns.adobe.com/AdobeIllustrator/10.0/">
	<!ENTITY ns_graphs "http://ns.adobe.com/Graphs/1.0/">
	<!ENTITY ns_vars "http://ns.adobe.com/Variables/1.0/">
	<!ENTITY ns_imrep "http://ns.adobe.com/ImageReplacement/1.0/">
	<!ENTITY ns_sfw "http://ns.adobe.com/SaveForWeb/1.0/">
	<!ENTITY ns_custom "http://ns.adobe.com/GenericCustomNamespace/1.0/">
	<!ENTITY ns_adobe_xpath "http://ns.adobe.com/XPath/1.0/">
]>
<svg version="1.1" id="Capa_1" xmlns:x="&ns_extend;" xmlns:i="&ns_ai;" xmlns:graph="&ns_graphs;"
	 xmlns="http://www.w3.org/2000/svg" xmlns:xlink="http://www.w3.org/1999/xlink" x="0px" y="0px" viewBox="0 0 96.6 70"
	 style="enable-background:new 0 0 96.6 70;" xml:space="preserve">
<style type="text/css">
	.st0{fill:#1B0035;}
	.st1{fill:#FF9B2E;}
	.st2{fill:#FFFFFF;}
	.st3{fill:#5F5666;}
	.st4{clip-path:url(#SVGID_2_);fill:#FF9B2E;}
	.st5{opacity:0.5;clip-path:url(#SVGID_2_);fill:#FFFFFF;}
	.st6{opacity:0.5;clip-path:url(#SVGID_2_);}
	.st7{clip-path:url(#SVGID_2_);fill:#5F5666;}
	.st8{clip-path:url(#SVGID_2_);fill:#1B0035;}
	.st9{clip-path:url(#SVGID_2_);}
	.st10{clip-path:url(#SVGID_2_);fill:#FFFFFF;}
</style>
<metadata>
	<sfw  xmlns="&ns_sfw;">
		<slices></slices>
		<sliceSourceBounds  bottomLeftOrigin="true" height="6135.9" width="5955.1" x="-454.1" y="-1131.5"></sliceSourceBounds>
		<optimizationSettings>
			<targetSettings  fileFormat="PNG8Format" targetSettingsID="0">
				
					<PNG8Format  autoReduce="false" ditherAlgorithm="diffusion" ditherPercent="88" interlaced="false" matteColor="#FFFFFF" noMatteColor="false" numColors="128" reductionAlgorithm="selective" rolloverMasterPalette="false" transparency="true" webShiftPercent="0">
					<colorTable  isExact="false"></colorTable>
					<lockedColors></lockedColors>
					<colorShiftEntries></colorShiftEntries>
				</PNG8Format>
			</targetSettings>
		</optimizationSettings>
	</sfw>
</metadata>
<g>
	<path class="st1" d="M4.3,53.9c0,1.6-0.9,3-2.1,3.5l0,0.2h9.9c0.2,0,0.3,0,0.5,0c4.8,0,8.6-4,8.3-8.9c-0.3-4.1-3.6-7.5-7.8-7.8
		c-4.8-0.3-8.9,3.5-8.9,8.3l0,0.2h0V53.9z"/>
	<path class="st1" d="M7.8,58.4c-4.3,0-7.8,3.5-7.8,7.8V70h25.3v-3.8c0-4.3-3.5-7.8-7.8-7.8H7.8z"/>
	<path class="st1" d="M82.7,38.7V4.5C82.7,2,80.8,0,78.5,0H17.6c-2.4,0-4.3,2-4.3,4.5v34.7c1,0.1,1.9,0.2,2.7,0.5V4.5
		c0-1,0.7-1.7,1.5-1.7h60.9c0.9,0,1.5,0.8,1.5,1.7v35C80.8,39.1,81.8,38.8,82.7,38.7z"/>
	<path class="st1" d="M25.4,50.6c0,3.4,2.8,6.2,6.2,6.2c3.4,0,6.2-2.8,6.2-6.2c0-3.4-2.8-6.2-6.2-6.2C28.2,44.4,25.4,47.2,25.4,50.6
		z"/>
	<path class="st1" d="M39.9,49.1c0,4.6,3.8,8.4,8.4,8.4c4.6,0,8.4-3.8,8.4-8.4c0-4.6-3.8-8.4-8.4-8.4C43.7,40.7,39.9,44.5,39.9,49.1
		z"/>
	<path class="st1" d="M43.4,58.3c-4.4,0-7.9,3.5-7.9,7.9V70H61v-3.8c0-4.4-3.5-7.9-7.9-7.9H43.4z"/>
	<path class="st1" d="M83.9,40.7c-4.6,0-8.4,3.8-8.4,8.4c0,4.6,3.8,8.4,8.4,8.4c4.6,0,8.4-3.8,8.4-8.4
		C92.3,44.5,88.5,40.7,83.9,40.7z"/>
	<path class="st1" d="M79,58.3c-4.4,0-7.9,3.5-7.9,7.9V70h25.5v-3.8c0-4.4-3.5-7.9-7.9-7.9H79z"/>
	<path class="st1" d="M61.4,57.4c-1.3,0-2.6,0.5-3.6,1.2c2.5,1.5,4.2,4.3,4.2,7.4h8.2c0.1-2.5,1.2-4.8,2.9-6.4
		c-1.1-1.4-2.7-2.3-4.6-2.3H61.4z"/>
	<path class="st1" d="M23.4,59.6c1.8,1.6,2.9,3.8,2.9,6.4h8.2c0.1-3.1,1.7-5.9,4.2-7.4c-1-0.8-2.2-1.2-3.6-1.2H28
		C26.1,57.4,24.5,58.3,23.4,59.6z"/>
	<path class="st1" d="M64.5,44.4c-3.1,0.2-5.6,2.7-5.8,5.8c-0.2,3.6,2.6,6.6,6.2,6.6l0.3,0h7.4l0-0.1c-0.9-0.4-1.6-1.4-1.6-2.6v-3.3
		h0l0-0.1C71.1,47.1,68.1,44.2,64.5,44.4z"/>
	<path class="st1" d="M58.2,9.1c-2.1-2-5.3-3.3-8.6-3.3L49.6,18L58.2,9.1z"/>
	<path class="st1" d="M47.3,5.6c-8.7,0-15.1,7.1-15.1,15.8c0,8.7,7.1,15.8,15.8,15.8c6.1,0,11.8-3.6,13.9-8.3l-14.2-7.5V5.6
		L47.3,5.6z"/>
	<polygon class="st2" points="54.5,22.7 57.7,12.4 55.5,14.7 53.2,22 	"/>
	<polygon class="st2" points="52.8,21.8 54.8,15.4 52.5,17.7 51.5,21.1 	"/>
	<path class="st2" d="M59.6,25.4l3.2-10.2c-0.3-0.7-0.6-1.3-0.9-1.9l-3.6,11.4L59.6,25.4z"/>
	<path class="st2" d="M61.3,26.4l2.4-7.7c-0.1-0.9-0.4-1.9-0.7-2.8L60,25.6L61.3,26.4z"/>
	<path class="st2" d="M62.5,27c1-1.9,1.4-4.2,1.4-6.5c0-0.2,0-0.5,0-0.7l-2.1,6.8L62.5,27z"/>
	<path class="st2" d="M54.9,22.9l1.3,0.7l4-12.6c-0.2-0.2-0.3-0.4-0.5-0.6l-1.2,1.3L54.9,22.9z"/>
	<polygon class="st2" points="51.8,18.4 50,20.3 51.1,20.9 	"/>
	<path class="st2" d="M57.9,24.5l3.7-11.7c-0.3-0.5-0.7-1-1.1-1.5l-3.9,12.4L57.9,24.5z"/>
</g>
</svg>
