<?xml version="1.0" encoding="utf-8"?>
<!-- Generator: Adobe Illustrator 24.0.2, SVG Export Plug-In . SVG Version: 6.00 Build 0)  -->
<!DOCTYPE svg PUBLIC "-//W3C//DTD SVG 1.1//EN" "http://www.w3.org/Graphics/SVG/1.1/DTD/svg11.dtd" [
	<!ENTITY ns_extend "http://ns.adobe.com/Extensibility/1.0/">
	<!ENTITY ns_ai "http://ns.adobe.com/AdobeIllustrator/10.0/">
	<!ENTITY ns_graphs "http://ns.adobe.com/Graphs/1.0/">
	<!ENTITY ns_vars "http://ns.adobe.com/Variables/1.0/">
	<!ENTITY ns_imrep "http://ns.adobe.com/ImageReplacement/1.0/">
	<!ENTITY ns_sfw "http://ns.adobe.com/SaveForWeb/1.0/">
	<!ENTITY ns_custom "http://ns.adobe.com/GenericCustomNamespace/1.0/">
	<!ENTITY ns_adobe_xpath "http://ns.adobe.com/XPath/1.0/">
]>
<svg version="1.1" id="Capa_1" xmlns:x="&ns_extend;" xmlns:i="&ns_ai;" xmlns:graph="&ns_graphs;"
	 xmlns="http://www.w3.org/2000/svg" xmlns:xlink="http://www.w3.org/1999/xlink" x="0px" y="0px" viewBox="0 0 70 70"
	 style="enable-background:new 0 0 70 70;" xml:space="preserve">
<style type="text/css">
	.st0{fill:#1B0035;}
	.st1{fill:#FF9B2E;}
	.st2{fill:#FFFFFF;}
	.st3{fill:#5F5666;}
	.st4{clip-path:url(#SVGID_2_);fill:#FF9B2E;}
	.st5{opacity:0.5;clip-path:url(#SVGID_2_);fill:#FFFFFF;}
	.st6{opacity:0.5;clip-path:url(#SVGID_2_);}
	.st7{clip-path:url(#SVGID_2_);fill:#5F5666;}
	.st8{clip-path:url(#SVGID_2_);fill:#1B0035;}
	.st9{clip-path:url(#SVGID_2_);}
	.st10{clip-path:url(#SVGID_2_);fill:#FFFFFF;}
</style>
<metadata>
	<sfw  xmlns="&ns_sfw;">
		<slices></slices>
		<sliceSourceBounds  bottomLeftOrigin="true" height="6135.9" width="5955.1" x="-454.1" y="-1131.5"></sliceSourceBounds>
		<optimizationSettings>
			<targetSettings  fileFormat="PNG8Format" targetSettingsID="0">
				
					<PNG8Format  autoReduce="false" ditherAlgorithm="diffusion" ditherPercent="88" interlaced="false" matteColor="#FFFFFF" noMatteColor="false" numColors="128" reductionAlgorithm="selective" rolloverMasterPalette="false" transparency="true" webShiftPercent="0">
					<colorTable  isExact="false"></colorTable>
					<lockedColors></lockedColors>
					<colorShiftEntries></colorShiftEntries>
				</PNG8Format>
			</targetSettings>
		</optimizationSettings>
	</sfw>
</metadata>
<g>
	<path class="st1" d="M5.2,0C3.8,0,2.5,0.6,1.5,1.5C0.6,2.5,0,3.8,0,5.2v59.6c0,1.4,0.6,2.7,1.5,3.7c1,1,2.3,1.5,3.7,1.5h59.6
		c1.4,0,2.7-0.6,3.7-1.5c1-1,1.5-2.3,1.5-3.7V5.2c0-1.4-0.6-2.7-1.5-3.7c-1-1-2.3-1.5-3.7-1.5H5.2z M18.9,7c1.9,0,3.5,1.6,3.5,3.5
		c0,1.9-1.6,3.5-3.5,3.5c-1.9,0-3.5-1.6-3.5-3.5C15.4,8.6,17,7,18.9,7z M8.2,7c1.9,0,3.5,1.6,3.5,3.5c0,1.9-1.6,3.5-3.5,3.5
		c-1.9,0-3.5-1.6-3.5-3.5C4.7,8.6,6.2,7,8.2,7z M65.4,62.9H4.7V19.1h60.7V62.9z"/>
	<path class="st2" d="M4.7,62.9h60.7V19.1H4.7V62.9z M54.4,31.9c0-0.1,0.1-0.3,0.2-0.4c0.1-0.1,0.2-0.2,0.4-0.2h3.3
		c0.2,0,0.3,0.1,0.4,0.2c0.1,0.1,0.2,0.3,0.2,0.4v11.3h5.2c0.1,0,0.3,0.1,0.4,0.2c0.1,0.1,0.2,0.3,0.2,0.4v2.8
		c0,0.1-0.1,0.3-0.2,0.4c-0.1,0.1-0.2,0.2-0.4,0.2H55c-0.2,0-0.3-0.1-0.4-0.2c-0.1-0.1-0.2-0.3-0.2-0.4V31.9z M36.3,32
		c0-0.3,0.3-0.5,0.6-0.5h4.4c0.3,0,0.5,0.2,0.5,0.4l1.4,4.9l0,0c0.3,1,0.5,2,0.8,3c0.3-1.1,0.6-2.1,0.8-3.1l0,0l1.6-4.9
		c0.1-0.2,0.3-0.4,0.5-0.4h4.3c0.3,0,0.5,0.2,0.6,0.5l0.8,14.6c0,0.2,0,0.3-0.2,0.4c-0.1,0.1-0.3,0.2-0.4,0.2h-3.2
		c-0.3,0-0.6-0.2-0.6-0.5l-0.2-5.6l0.6,0l-0.6,0c0-0.7-0.1-1.5-0.1-2.3c-0.2,0.7-0.4,1.4-0.6,2.1l-1.8,5.7c-0.1,0.2-0.3,0.4-0.5,0.4
		h-2.6c-0.3,0-0.5-0.2-0.5-0.4l-1.6-5.7c-0.1-0.5-0.3-1.1-0.4-1.6c0,0.6-0.1,1.3-0.1,1.8l-0.3,5.5c0,0.3-0.3,0.5-0.6,0.5h-3.1
		c-0.2,0-0.3-0.1-0.4-0.2c-0.1-0.1-0.2-0.3-0.2-0.4L36.3,32z M22.3,32c0-0.1,0.1-0.3,0.2-0.4c0.1-0.1,0.2-0.2,0.4-0.2h11.2
		c0.1,0,0.3,0.1,0.4,0.2c0.1,0.1,0.2,0.3,0.2,0.4v2.8c0,0.1-0.1,0.3-0.2,0.4c-0.1,0.1-0.2,0.2-0.4,0.2h-3.4v11.3
		c0,0.1-0.1,0.3-0.2,0.4c-0.1,0.1-0.2,0.2-0.4,0.2h-3.3c-0.2,0-0.3-0.1-0.4-0.2c-0.1-0.1-0.2-0.3-0.2-0.4V35.4h-3.4
		c-0.2,0-0.3-0.1-0.4-0.2c-0.1-0.1-0.2-0.3-0.2-0.4V32z M6.4,32c0-0.1,0.1-0.3,0.2-0.4c0.1-0.1,0.2-0.2,0.4-0.2h3.3
		c0.1,0,0.3,0.1,0.4,0.2c0.1,0.1,0.2,0.3,0.2,0.4v5h4.3v-5c0-0.1,0.1-0.3,0.2-0.4c0.1-0.1,0.2-0.2,0.4-0.2H19c0.1,0,0.3,0.1,0.4,0.2
		c0.1,0.1,0.2,0.3,0.2,0.4v14.6c0,0.1-0.1,0.3-0.2,0.4c-0.1,0.1-0.2,0.2-0.4,0.2h-3.3c-0.2,0-0.3-0.1-0.4-0.2
		c-0.1-0.1-0.2-0.3-0.2-0.4v-5.5h-4.3v5.5c0,0.1-0.1,0.3-0.2,0.4c-0.1,0.1-0.2,0.2-0.4,0.2H6.9c-0.2,0-0.3-0.1-0.4-0.2
		c-0.1-0.1-0.2-0.3-0.2-0.4V32z"/>
	<path class="st2" d="M15.4,10.5c0,1.9,1.6,3.5,3.5,3.5c1.9,0,3.5-1.6,3.5-3.5c0-1.9-1.6-3.5-3.5-3.5C17,7,15.4,8.6,15.4,10.5z"/>
	<path class="st2" d="M4.7,10.5c0,1.9,1.6,3.5,3.5,3.5c1.9,0,3.5-1.6,3.5-3.5c0-1.9-1.6-3.5-3.5-3.5C6.2,7,4.7,8.6,4.7,10.5z"/>
	<path class="st0" d="M15.3,47c0.1,0.1,0.2,0.2,0.4,0.2H19c0.1,0,0.3-0.1,0.4-0.2c0.1-0.1,0.2-0.3,0.2-0.4V32c0-0.1-0.1-0.3-0.2-0.4
		c-0.1-0.1-0.2-0.2-0.4-0.2h-3.3c-0.2,0-0.3,0.1-0.4,0.2c-0.1,0.1-0.2,0.3-0.2,0.4v5h-4.3v-5c0-0.1-0.1-0.3-0.2-0.4
		c-0.1-0.1-0.2-0.2-0.4-0.2H6.9c-0.2,0-0.3,0.1-0.4,0.2c-0.1,0.1-0.2,0.3-0.2,0.4v14.6c0,0.1,0.1,0.3,0.2,0.4
		c0.1,0.1,0.2,0.2,0.4,0.2h3.3c0.1,0,0.3-0.1,0.4-0.2c0.1-0.1,0.2-0.3,0.2-0.4v-5.5h4.3v5.5C15.1,46.8,15.2,46.9,15.3,47z"/>
	<path class="st0" d="M26.4,47c0.1,0.1,0.2,0.2,0.4,0.2h3.3c0.2,0,0.3-0.1,0.4-0.2c0.1-0.1,0.2-0.3,0.2-0.4V35.4h3.4
		c0.1,0,0.3-0.1,0.4-0.2c0.1-0.1,0.2-0.3,0.2-0.4V32c0-0.1-0.1-0.3-0.2-0.4c-0.1-0.1-0.2-0.2-0.4-0.2H22.9c-0.2,0-0.3,0.1-0.4,0.2
		c-0.1,0.1-0.2,0.3-0.2,0.4v2.8c0,0.1,0.1,0.3,0.2,0.4c0.1,0.1,0.2,0.2,0.4,0.2h3.4v11.3C26.2,46.8,26.3,46.9,26.4,47z"/>
	<path class="st0" d="M48.3,46.6c0,0.3,0.3,0.5,0.6,0.5h3.2c0.2,0,0.3-0.1,0.4-0.2c0.1-0.1,0.2-0.3,0.2-0.4L51.8,32
		c0-0.3-0.3-0.5-0.6-0.5H47c-0.2,0-0.5,0.2-0.5,0.4l-1.6,4.9l0,0c-0.3,1-0.6,2-0.8,3.1c-0.2-1-0.5-2-0.8-3l0,0l-1.4-4.9
		c-0.1-0.2-0.3-0.4-0.5-0.4h-4.4c-0.3,0-0.5,0.2-0.6,0.5l-0.9,14.6c0,0.2,0,0.3,0.2,0.4c0.1,0.1,0.3,0.2,0.4,0.2H39
		c0.3,0,0.6-0.2,0.6-0.5l0.3-5.5c0-0.6,0.1-1.2,0.1-1.8c0.1,0.6,0.3,1.1,0.4,1.6l1.6,5.7c0.1,0.2,0.3,0.4,0.5,0.4H45
		c0.2,0,0.5-0.2,0.5-0.4l1.8-5.7c0.2-0.6,0.4-1.3,0.6-2.1c0,0.8,0,1.6,0.1,2.3l0.6,0l-0.6,0L48.3,46.6z"/>
	<path class="st0" d="M58.9,43.2V31.9c0-0.1-0.1-0.3-0.2-0.4c-0.1-0.1-0.2-0.2-0.4-0.2H55c-0.2,0-0.3,0.1-0.4,0.2
		c-0.1,0.1-0.2,0.3-0.2,0.4v14.6c0,0.1,0.1,0.3,0.2,0.4c0.1,0.1,0.2,0.2,0.4,0.2h9.1c0.1,0,0.3-0.1,0.4-0.2c0.1-0.1,0.2-0.3,0.2-0.4
		v-2.8c0-0.1-0.1-0.3-0.2-0.4c-0.1-0.1-0.2-0.2-0.4-0.2H58.9z"/>
</g>
</svg>
