<?xml version="1.0" encoding="utf-8"?>
<!-- Generator: Adobe Illustrator 24.0.2, SVG Export Plug-In . SVG Version: 6.00 Build 0)  -->
<!DOCTYPE svg PUBLIC "-//W3C//DTD SVG 1.1//EN" "http://www.w3.org/Graphics/SVG/1.1/DTD/svg11.dtd" [
	<!ENTITY ns_extend "http://ns.adobe.com/Extensibility/1.0/">
	<!ENTITY ns_ai "http://ns.adobe.com/AdobeIllustrator/10.0/">
	<!ENTITY ns_graphs "http://ns.adobe.com/Graphs/1.0/">
	<!ENTITY ns_vars "http://ns.adobe.com/Variables/1.0/">
	<!ENTITY ns_imrep "http://ns.adobe.com/ImageReplacement/1.0/">
	<!ENTITY ns_sfw "http://ns.adobe.com/SaveForWeb/1.0/">
	<!ENTITY ns_custom "http://ns.adobe.com/GenericCustomNamespace/1.0/">
	<!ENTITY ns_adobe_xpath "http://ns.adobe.com/XPath/1.0/">
]>
<svg version="1.1" id="Capa_1" xmlns:x="&ns_extend;" xmlns:i="&ns_ai;" xmlns:graph="&ns_graphs;"
	 xmlns="http://www.w3.org/2000/svg" xmlns:xlink="http://www.w3.org/1999/xlink" x="0px" y="0px" viewBox="0 0 68.5 70"
	 style="enable-background:new 0 0 68.5 70;" xml:space="preserve">
<style type="text/css">
	.st0{fill:#1B0035;}
	.st1{fill:#FF9B2E;}
	.st2{fill:#FFFFFF;}
	.st3{fill:#5F5666;}
	.st4{clip-path:url(#SVGID_2_);fill:#FF9B2E;}
	.st5{opacity:0.5;clip-path:url(#SVGID_2_);fill:#FFFFFF;}
	.st6{opacity:0.5;clip-path:url(#SVGID_2_);}
	.st7{clip-path:url(#SVGID_2_);fill:#5F5666;}
	.st8{clip-path:url(#SVGID_2_);fill:#1B0035;}
	.st9{clip-path:url(#SVGID_2_);}
	.st10{clip-path:url(#SVGID_2_);fill:#FFFFFF;}
</style>
<metadata>
	<sfw  xmlns="&ns_sfw;">
		<slices></slices>
		<sliceSourceBounds  bottomLeftOrigin="true" height="6135.9" width="5955.1" x="-454.1" y="-1131.5"></sliceSourceBounds>
		<optimizationSettings>
			<targetSettings  fileFormat="PNG8Format" targetSettingsID="0">
				
					<PNG8Format  autoReduce="false" ditherAlgorithm="diffusion" ditherPercent="88" interlaced="false" matteColor="#FFFFFF" noMatteColor="false" numColors="128" reductionAlgorithm="selective" rolloverMasterPalette="false" transparency="true" webShiftPercent="0">
					<colorTable  isExact="false"></colorTable>
					<lockedColors></lockedColors>
					<colorShiftEntries></colorShiftEntries>
				</PNG8Format>
			</targetSettings>
		</optimizationSettings>
	</sfw>
</metadata>
<g>
	<path class="st1" d="M47,15.9c1,0.2,2-0.4,2.2-1.3l2.2-8.8c0.2-1-0.4-2-1.3-2.2l-8.2-2c-1-0.2-2,0.4-2.2,1.3c-0.2,1,0.4,2,1.3,2.2
		L44.6,6L19.7,24.1c-0.8,0.6-1,1.7-0.4,2.6c0.6,0.8,1.7,1,2.6,0.4l25-18.2l-1.2,4.8C45.4,14.7,46,15.7,47,15.9z"/>
	<rect x="5.1" y="46.4" class="st2" width="15.6" height="14.7"/>
	<rect x="27.4" y="33" class="st2" width="15.6" height="28.1"/>
	<polygon class="st1" points="65.3,49.8 65.3,46.8 54.1,61 56.4,61 	"/>
	<polygon class="st1" points="65.3,46 65.3,43.1 51.1,61 53.5,61 	"/>
	<polygon class="st1" points="52.1,18.2 49.7,18.2 49.7,21.1 	"/>
	<polygon class="st1" points="65.3,27.4 65.3,24.5 49.7,44.2 49.7,47.1 	"/>
	<polygon class="st1" points="65.3,31.2 65.3,28.2 49.7,47.9 49.7,50.9 	"/>
	<polygon class="st1" points="50.5,61 65.3,42.3 65.3,39.4 49.7,59.1 49.7,61 	"/>
	<polygon class="st1" points="65.3,23.7 65.3,20.8 49.7,40.5 49.7,43.4 	"/>
	<polygon class="st1" points="65.3,38.6 65.3,35.6 49.7,55.3 49.7,58.3 	"/>
	<polygon class="st1" points="49.7,24.8 55,18.2 52.7,18.2 49.7,21.9 	"/>
	<polygon class="st1" points="65.3,34.9 65.3,31.9 49.7,51.6 49.7,54.6 	"/>
	<polygon class="st1" points="49.7,32.2 60.9,18.2 58.5,18.2 49.7,29.3 	"/>
	<polygon class="st1" points="65.3,57.2 65.3,54.2 59.9,61 62.3,61 	"/>
	<polygon class="st1" points="65.3,60.9 65.3,58 62.9,61 65.2,61 	"/>
	<polygon class="st1" points="49.7,36 63.8,18.2 61.5,18.2 49.7,33 	"/>
	<polygon class="st1" points="65.3,53.5 65.3,50.5 57,61 59.3,61 	"/>
	<polygon class="st1" points="49.7,28.5 57.9,18.2 55.6,18.2 49.7,25.6 	"/>
	<polygon class="st1" points="49.7,39.7 65.3,20 65.3,18.2 64.4,18.2 49.7,36.7 	"/>
	<polygon class="st0" points="49.7,21.9 52.7,18.2 52.1,18.2 49.7,21.1 	"/>
	<polygon class="st0" points="49.7,25.6 55.6,18.2 55,18.2 49.7,24.8 	"/>
	<polygon class="st0" points="49.7,29.3 58.5,18.2 57.9,18.2 49.7,28.5 	"/>
	<polygon class="st0" points="49.7,33 61.5,18.2 60.9,18.2 49.7,32.2 	"/>
	<polygon class="st0" points="49.7,36.7 64.4,18.2 63.8,18.2 49.7,36 	"/>
	<polygon class="st0" points="65.3,20.8 65.3,20 49.7,39.7 49.7,40.5 	"/>
	<polygon class="st0" points="65.3,24.5 65.3,23.7 49.7,43.4 49.7,44.2 	"/>
	<polygon class="st0" points="65.3,28.2 65.3,27.4 49.7,47.1 49.7,47.9 	"/>
	<polygon class="st0" points="65.3,31.9 65.3,31.2 49.7,50.9 49.7,51.6 	"/>
	<polygon class="st0" points="65.3,35.6 65.3,34.9 49.7,54.6 49.7,55.3 	"/>
	<polygon class="st0" points="65.3,39.4 65.3,38.6 49.7,58.3 49.7,59.1 	"/>
	<polygon class="st0" points="65.3,43.1 65.3,42.3 50.5,61 51.1,61 	"/>
	<polygon class="st0" points="65.3,46.8 65.3,46 53.5,61 54.1,61 	"/>
	<polygon class="st0" points="65.3,50.5 65.3,49.8 56.4,61 57,61 	"/>
	<polygon class="st0" points="65.3,54.2 65.3,53.5 59.3,61 59.9,61 	"/>
	<polygon class="st0" points="65.3,58 65.3,57.2 62.3,61 62.9,61 	"/>
	<polygon class="st2" points="65.3,60.9 65.2,61 65.3,61 	"/>
	<path class="st1" d="M0,0v68.1c0,0.5,0.2,1,0.6,1.3C0.9,69.8,1.4,70,1.9,70h66.6v-3.8H3.8V0H0z"/>
</g>
</svg>
