<?xml version="1.0" encoding="utf-8"?>
<!-- Generator: Adobe Illustrator 24.0.2, SVG Export Plug-In . SVG Version: 6.00 Build 0)  -->
<!DOCTYPE svg PUBLIC "-//W3C//DTD SVG 1.1//EN" "http://www.w3.org/Graphics/SVG/1.1/DTD/svg11.dtd" [
	<!ENTITY ns_extend "http://ns.adobe.com/Extensibility/1.0/">
	<!ENTITY ns_ai "http://ns.adobe.com/AdobeIllustrator/10.0/">
	<!ENTITY ns_graphs "http://ns.adobe.com/Graphs/1.0/">
	<!ENTITY ns_vars "http://ns.adobe.com/Variables/1.0/">
	<!ENTITY ns_imrep "http://ns.adobe.com/ImageReplacement/1.0/">
	<!ENTITY ns_sfw "http://ns.adobe.com/SaveForWeb/1.0/">
	<!ENTITY ns_custom "http://ns.adobe.com/GenericCustomNamespace/1.0/">
	<!ENTITY ns_adobe_xpath "http://ns.adobe.com/XPath/1.0/">
]>
<svg version="1.1" id="Capa_1" xmlns:x="&ns_extend;" xmlns:i="&ns_ai;" xmlns:graph="&ns_graphs;"
	 xmlns="http://www.w3.org/2000/svg" xmlns:xlink="http://www.w3.org/1999/xlink" x="0px" y="0px" viewBox="0 0 144.3 70"
	 style="enable-background:new 0 0 144.3 70;" xml:space="preserve">
<style type="text/css">
	.st0{fill:#1B0035;}
	.st1{fill:#FF9B2E;}
	.st2{fill:#FFFFFF;}
	.st3{fill:#5F5666;}
	.st4{clip-path:url(#SVGID_2_);fill:#FF9B2E;}
	.st5{opacity:0.5;clip-path:url(#SVGID_2_);fill:#FFFFFF;}
	.st6{opacity:0.5;clip-path:url(#SVGID_2_);}
	.st7{clip-path:url(#SVGID_2_);fill:#5F5666;}
	.st8{clip-path:url(#SVGID_2_);fill:#1B0035;}
	.st9{clip-path:url(#SVGID_2_);}
	.st10{clip-path:url(#SVGID_2_);fill:#FFFFFF;}
</style>
<metadata>
	<sfw  xmlns="&ns_sfw;">
		<slices></slices>
		<sliceSourceBounds  bottomLeftOrigin="true" height="6135.9" width="5955.1" x="-454.1" y="-1131.5"></sliceSourceBounds>
		<optimizationSettings>
			<targetSettings  fileFormat="PNG8Format" targetSettingsID="0">
				
					<PNG8Format  autoReduce="false" ditherAlgorithm="diffusion" ditherPercent="88" interlaced="false" matteColor="#FFFFFF" noMatteColor="false" numColors="128" reductionAlgorithm="selective" rolloverMasterPalette="false" transparency="true" webShiftPercent="0">
					<colorTable  isExact="false"></colorTable>
					<lockedColors></lockedColors>
					<colorShiftEntries></colorShiftEntries>
				</PNG8Format>
			</targetSettings>
		</optimizationSettings>
	</sfw>
</metadata>
<g>
	<path class="st2" d="M7.6,35c6.5,6,20.7,17.8,38.6,24.5C39.9,53.2,36.1,44.5,36.1,35c0-9.5,3.9-18.2,10.1-24.4
		C28.3,17.2,14.1,29,7.6,35z"/>
	<path class="st2" d="M93.7,61c19.9-6.3,35.9-19.4,42.9-26c-7-6.5-23-19.7-42.9-25.9c7.2,6.4,11.7,15.6,11.7,25.9
		C105.5,45.3,100.9,54.6,93.7,61z"/>
	<path class="st1" d="M0,34.7v0.6C3.3,38.8,34.3,70,72.1,70c37.8,0,68.8-31.2,72.1-34.7v-0.6C140.9,31.2,109.9,0,72.1,0
		C34.3,0,3.3,31.2,0,34.7z M7.6,35c6.5-6,20.7-17.8,38.5-24.5C39.9,16.8,36.1,25.5,36.1,35c0,9.6,3.9,18.2,10.1,24.5
		C28.3,52.8,14.1,41,7.6,35z M136.6,35c-7,6.5-23,19.7-42.9,26c7.2-6.4,11.7-15.6,11.7-26c0-10.3-4.5-19.6-11.7-25.9
		C113.7,15.3,129.6,28.5,136.6,35z M101,35c0,16.7-13.5,30.3-30.3,30.3c-16.7,0-30.3-13.6-30.3-30.3c0-16.7,13.6-30.3,30.3-30.3
		C87.5,4.7,101,18.3,101,35z"/>
	<path class="st2" d="M40.5,35c0,16.7,13.6,30.3,30.3,30.3C87.5,65.3,101,51.7,101,35c0-16.7-13.5-30.3-30.3-30.3
		C54.1,4.7,40.5,18.3,40.5,35z M98.8,35c0,15.5-12.6,28-28,28c-15.5,0-28-12.6-28-28c0-15.5,12.6-28,28-28
		C86.3,6.9,98.8,19.5,98.8,35z"/>
	<path class="st0" d="M42.7,35c0,15.5,12.6,28,28,28c15.5,0,28-12.6,28-28c0-15.5-12.6-28-28-28C55.3,6.9,42.7,19.5,42.7,35z
		 M58.8,31.3c-4.8,0-8.8-3.7-8.8-8.3c0-4.6,3.9-8.3,8.8-8.3c4.8,0,8.8,3.7,8.8,8.3C67.6,27.6,63.6,31.3,58.8,31.3z M92.1,43.8
		c0,6.9-5.6,12.5-12.5,12.5c-6.9,0-12.5-5.6-12.5-12.5s5.6-12.5,12.5-12.5C86.5,31.3,92.1,36.9,92.1,43.8z"/>
	<path class="st2" d="M67.1,43.8c0,6.9,5.6,12.5,12.5,12.5c6.9,0,12.5-5.6,12.5-12.5s-5.6-12.5-12.5-12.5
		C72.7,31.3,67.1,36.9,67.1,43.8z"/>
	<path class="st2" d="M50,23c0,4.6,3.9,8.3,8.8,8.3c4.8,0,8.8-3.7,8.8-8.3c0-4.6-3.9-8.3-8.8-8.3C53.9,14.7,50,18.4,50,23z"/>
</g>
</svg>
